<?xml version="1.0" encoding="UTF-8"?>
<!DOCTYPE svg PUBLIC "-//W3C//DTD SVG 1.1//EN" "http://www.w3.org/Graphics/SVG/1.1/DTD/svg11.dtd">
<svg xmlns="http://www.w3.org/2000/svg" version="1.1" width="148px" height="147px" style="shape-rendering:geometricPrecision; text-rendering:geometricPrecision; image-rendering:optimizeQuality; fill-rule:evenodd; clip-rule:evenodd" xmlns:xlink="http://www.w3.org/1999/xlink">
<g><path style="opacity:1" fill="#eeb702" d="M 104.5,20.5 C 104.5,26.5 104.5,32.5 104.5,38.5C 71.5,38.5 38.5,38.5 5.5,38.5C 5.33385,32.4908 5.50051,26.4908 6,20.5C 8.19617,17.8748 11.0295,16.8748 14.5,17.5C 14.3354,20.5184 14.502,23.5184 15,26.5C 22.5316,28.4656 25.3649,25.4656 23.5,17.5C 28.5,17.5 33.5,17.5 38.5,17.5C 38.3359,20.1873 38.5026,22.854 39,25.5C 41.6667,28.1667 44.3333,28.1667 47,25.5C 47.4974,22.854 47.6641,20.1873 47.5,17.5C 52.5,17.5 57.5,17.5 62.5,17.5C 62.3359,20.1873 62.5026,22.854 63,25.5C 65.6667,28.1667 68.3333,28.1667 71,25.5C 71.4974,22.854 71.6641,20.1873 71.5,17.5C 76.5,17.5 81.5,17.5 86.5,17.5C 86.3359,20.1873 86.5026,22.854 87,25.5C 89.6667,28.1667 92.3333,28.1667 95,25.5C 95.4974,22.854 95.6641,20.1873 95.5,17.5C 99.1125,16.9238 102.112,17.9238 104.5,20.5 Z"/></g>
<g><path style="opacity:1" fill="#28697a" d="M 105.5,20.5 C 105.167,20.5 104.833,20.5 104.5,20.5C 102.112,17.9238 99.1125,16.9238 95.5,17.5C 95.6641,20.1873 95.4974,22.854 95,25.5C 92.3333,28.1667 89.6667,28.1667 87,25.5C 86.5026,22.854 86.3359,20.1873 86.5,17.5C 81.5,17.5 76.5,17.5 71.5,17.5C 71.6641,20.1873 71.4974,22.854 71,25.5C 68.3333,28.1667 65.6667,28.1667 63,25.5C 62.5026,22.854 62.3359,20.1873 62.5,17.5C 57.5,17.5 52.5,17.5 47.5,17.5C 47.6641,20.1873 47.4974,22.854 47,25.5C 44.3333,28.1667 41.6667,28.1667 39,25.5C 38.5026,22.854 38.3359,20.1873 38.5,17.5C 33.5,17.5 28.5,17.5 23.5,17.5C 25.3649,25.4656 22.5316,28.4656 15,26.5C 14.502,23.5184 14.3354,20.5184 14.5,17.5C 11.0295,16.8748 8.19617,17.8748 6,20.5C 5.50051,26.4908 5.33385,32.4908 5.5,38.5C 4.83333,38.5 4.16667,38.5 3.5,38.5C 3.33385,32.4908 3.50051,26.4908 4,20.5C 5.94493,16.6099 9.11159,14.9433 13.5,15.5C 13.3359,12.8127 13.5026,10.146 14,7.5C 16.5275,2.61599 19.5275,2.28266 23,6.5C 23.498,9.48162 23.6646,12.4816 23.5,15.5C 28.5,15.5 33.5,15.5 38.5,15.5C 38.335,12.1501 38.5017,8.81677 39,5.5C 41.6667,2.83333 44.3333,2.83333 47,5.5C 47.4983,8.81677 47.665,12.1501 47.5,15.5C 52.5,15.5 57.5,15.5 62.5,15.5C 62.335,12.1501 62.5017,8.81677 63,5.5C 65.6667,2.83333 68.3333,2.83333 71,5.5C 71.4983,8.81677 71.665,12.1501 71.5,15.5C 76.5,15.5 81.5,15.5 86.5,15.5C 86.335,12.1501 86.5017,8.81677 87,5.5C 89.6667,2.83333 92.3333,2.83333 95,5.5C 95.4983,8.81677 95.665,12.1501 95.5,15.5C 100.314,14.5729 103.648,16.2396 105.5,20.5 Z"/></g>
<g><path style="opacity:1" fill="#fbfcfc" d="M 89.5,5.5 C 90.8221,5.33003 91.9887,5.66337 93,6.5C 93.6667,12.8333 93.6667,19.1667 93,25.5C 91.6667,26.8333 90.3333,26.8333 89,25.5C 88.2075,18.7526 88.3742,12.0859 89.5,5.5 Z"/></g>
<g><path style="opacity:1" fill="#fbfcfc" d="M 65.5,5.5 C 66.8221,5.33003 67.9887,5.66337 69,6.5C 69.6667,12.8333 69.6667,19.1667 69,25.5C 67.6667,26.8333 66.3333,26.8333 65,25.5C 64.2075,18.7526 64.3742,12.0859 65.5,5.5 Z"/></g>
<g><path style="opacity:1" fill="#fbfcfc" d="M 41.5,5.5 C 42.8221,5.33003 43.9887,5.66337 45,6.5C 45.6667,12.8333 45.6667,19.1667 45,25.5C 43.6667,26.8333 42.3333,26.8333 41,25.5C 40.2075,18.7526 40.3742,12.0859 41.5,5.5 Z"/></g>
<g><path style="opacity:1" fill="#fafbfc" d="M 17.5,5.5 C 18.8221,5.33003 19.9887,5.66337 21,6.5C 21.6667,12.8333 21.6667,19.1667 21,25.5C 19.6667,26.8333 18.3333,26.8333 17,25.5C 16.2075,18.7526 16.3742,12.0859 17.5,5.5 Z"/></g>
<g><path style="opacity:1" fill="#0b5f76" d="M 104.5,20.5 C 104.833,20.5 105.167,20.5 105.5,20.5C 105.83,36.0091 105.496,51.3424 104.5,66.5C 104.5,57.8333 104.5,49.1667 104.5,40.5C 71.5,40.5 38.5,40.5 5.5,40.5C 5.33337,63.8357 5.50003,87.169 6,110.5C 6.42244,112.426 7.5891,113.426 9.5,113.5C 28.6595,114.497 47.9928,114.83 67.5,114.5C 68.7383,114.81 68.7383,115.31 67.5,116C 48.1667,116.667 28.8333,116.667 9.5,116C 7.91941,115.293 6.41941,114.46 5,113.5C 3.51905,88.5896 3.01905,63.5896 3.5,38.5C 4.16667,38.5 4.83333,38.5 5.5,38.5C 38.5,38.5 71.5,38.5 104.5,38.5C 104.5,32.5 104.5,26.5 104.5,20.5 Z"/></g>
<g><path style="opacity:1" fill="#037a77" d="M 105.5,20.5 C 106.166,28.1594 106.5,35.9927 106.5,44C 106.498,52.1963 105.831,60.0297 104.5,67.5C 104.5,67.1667 104.5,66.8333 104.5,66.5C 105.496,51.3424 105.83,36.0091 105.5,20.5 Z"/></g>
<g><path style="opacity:1" fill="#fcfdfb" d="M 104.5,66.5 C 104.5,66.8333 104.5,67.1667 104.5,67.5C 97.6687,68.388 91.1687,70.388 85,73.5C 81.3856,70.0497 77.8856,66.3831 74.5,62.5C 73.675,61.6143 72.675,61.281 71.5,61.5C 71.7935,57.5633 71.4601,53.73 70.5,50C 66.8333,49.3333 63.1667,49.3333 59.5,50C 58.3705,54.0785 58.2039,58.2452 59,62.5C 62.3936,63.4558 65.8936,63.7892 69.5,63.5C 69.9628,66.221 70.6295,68.8877 71.5,71.5C 67.2648,70.564 62.9315,70.2307 58.5,70.5C 58.5,74.8333 58.5,79.1667 58.5,83.5C 62.5138,83.6655 66.5138,83.4988 70.5,83C 71.4558,79.6064 71.7892,76.1064 71.5,72.5C 72.9056,75.5254 74.239,78.6921 75.5,82C 71.7769,87.3297 69.1102,93.163 67.5,99.5C 66.5139,103.97 66.1805,108.637 66.5,113.5C 47.5,113.5 28.5,113.5 9.5,113.5C 7.5891,113.426 6.42244,112.426 6,110.5C 5.50003,87.169 5.33337,63.8357 5.5,40.5C 38.5,40.5 71.5,40.5 104.5,40.5C 104.5,49.1667 104.5,57.8333 104.5,66.5 Z"/></g>
<g><path style="opacity:1" fill="#f2bb1c" d="M 19.5,49.5 C 23.4367,49.2065 27.27,49.5399 31,50.5C 31.7961,54.7548 31.6295,58.9215 30.5,63C 26.577,63.7927 22.7436,63.626 19,62.5C 18.2316,58.0804 18.3982,53.7471 19.5,49.5 Z"/></g>
<g><path style="opacity:1" fill="#f2bb1c" d="M 39.5,49.5 C 43.4367,49.2065 47.27,49.5399 51,50.5C 51.7961,54.7548 51.6295,58.9215 50.5,63C 46.577,63.7927 42.7436,63.626 39,62.5C 38.2316,58.0804 38.3982,53.7471 39.5,49.5 Z"/></g>
<g><path style="opacity:1" fill="#f1bb1d" d="M 71.5,61.5 C 70.5,61.8333 69.8333,62.5 69.5,63.5C 65.8936,63.7892 62.3936,63.4558 59,62.5C 58.2039,58.2452 58.3705,54.0785 59.5,50C 63.1667,49.3333 66.8333,49.3333 70.5,50C 71.4601,53.73 71.7935,57.5633 71.5,61.5 Z"/></g>
<g><path style="opacity:1" fill="#f2bc1e" d="M 79.5,49.5 C 83.4367,49.2065 87.27,49.5399 91,50.5C 91.7961,54.7548 91.6295,58.9215 90.5,63C 86.577,63.7927 82.7436,63.626 79,62.5C 78.2316,58.0804 78.3982,53.7471 79.5,49.5 Z"/></g>
<g><path style="opacity:1" fill="#f1b806" d="M 18.5,70.5 C 22.8333,70.5 27.1667,70.5 31.5,70.5C 31.5,74.8333 31.5,79.1667 31.5,83.5C 27.4862,83.6655 23.4862,83.4988 19.5,83C 18.5363,78.9341 18.203,74.7675 18.5,70.5 Z"/></g>
<g><path style="opacity:1" fill="#f1b804" d="M 38.5,70.5 C 42.8333,70.5 47.1667,70.5 51.5,70.5C 51.6655,74.5138 51.4988,78.5138 51,82.5C 47,83.8333 43,83.8333 39,82.5C 38.5012,78.5138 38.3345,74.5138 38.5,70.5 Z"/></g>
<g><path style="opacity:1" fill="#f1b805" d="M 71.5,71.5 C 71.5,71.8333 71.5,72.1667 71.5,72.5C 71.7892,76.1064 71.4558,79.6064 70.5,83C 66.5138,83.4988 62.5138,83.6655 58.5,83.5C 58.5,79.1667 58.5,74.8333 58.5,70.5C 62.9315,70.2307 67.2648,70.564 71.5,71.5 Z"/></g>
<g><path style="opacity:1" fill="#fafbfc" d="M 73.5,67.5 C 76.7852,71.4519 80.4518,75.1185 84.5,78.5C 103.149,67.6357 119.982,69.969 135,85.5C 143.667,99.8333 143.667,114.167 135,128.5C 119.928,144.479 103.094,146.646 84.5,135C 73.1972,124.983 69.0306,112.483 72,97.5C 73.722,92.3878 76.222,87.7211 79.5,83.5C 79.3764,82.8933 79.0431,82.56 78.5,82.5C 76.2382,77.7145 74.5715,72.7145 73.5,67.5 Z"/></g>
<g><path style="opacity:1" fill="#f1b806" d="M 19.5,90.5 C 23.5,90.5 27.5,90.5 31.5,90.5C 31.5,94.8333 31.5,99.1667 31.5,103.5C 27.1667,103.5 22.8333,103.5 18.5,103.5C 18.2307,99.0685 18.564,94.7352 19.5,90.5 Z"/></g>
<g><path style="opacity:1" fill="#f1b805" d="M 38.5,90.5 C 42.5138,90.3345 46.5138,90.5012 50.5,91C 51.4637,95.0659 51.797,99.2325 51.5,103.5C 47.1667,103.5 42.8333,103.5 38.5,103.5C 38.5,99.1667 38.5,94.8333 38.5,90.5 Z"/></g>
<g><path style="opacity:1" fill="#275f73" d="M 99.5,112.5 C 94.6946,111.513 89.6946,111.179 84.5,111.5C 84.5,106.833 84.5,102.167 84.5,97.5C 89.5,97.5 94.5,97.5 99.5,97.5C 99.5,92.1667 99.5,86.8333 99.5,81.5C 104.5,81.5 109.5,81.5 114.5,81.5C 114.5,86.8333 114.5,92.1667 114.5,97.5C 119.5,97.5 124.5,97.5 129.5,97.5C 129.5,102.167 129.5,106.833 129.5,111.5C 124.5,111.5 119.5,111.5 114.5,111.5C 114.5,116.833 114.5,122.167 114.5,127.5C 109.5,127.5 104.5,127.5 99.5,127.5C 99.5,122.5 99.5,117.5 99.5,112.5 Z"/></g>
<g><path style="opacity:1" fill="#9fc5c9" d="M 67.5,99.5 C 67.5,104.5 67.5,109.5 67.5,114.5C 47.9928,114.83 28.6595,114.497 9.5,113.5C 28.5,113.5 47.5,113.5 66.5,113.5C 66.1805,108.637 66.5139,103.97 67.5,99.5 Z"/></g>
<g><path style="opacity:1" fill="#1d697d" d="M 78.5,82.5 C 79.0431,82.56 79.3764,82.8933 79.5,83.5C 76.222,87.7211 73.722,92.3878 72,97.5C 69.0306,112.483 73.1972,124.983 84.5,135C 103.094,146.646 119.928,144.479 135,128.5C 143.667,114.167 143.667,99.8333 135,85.5C 119.982,69.969 103.149,67.6357 84.5,78.5C 80.4518,75.1185 76.7852,71.4519 73.5,67.5C 72.6091,66.7387 71.9424,65.7387 71.5,64.5C 72.0016,63.479 72.6683,63.3123 73.5,64C 76.9806,68.315 80.6473,72.4816 84.5,76.5C 103.497,65.4098 120.664,67.7431 136,83.5C 146.278,99.7505 145.945,115.75 135,131.5C 118.081,147.343 100.248,148.51 81.5,135C 71.2521,124.92 67.4187,112.753 70,98.5C 71.555,92.3849 74.3884,87.0515 78.5,82.5 Z"/></g>
<g><path style="opacity:1" fill="#7aa4b5" d="M 84.5,97.5 C 84.5,102.167 84.5,106.833 84.5,111.5C 89.6946,111.179 94.6946,111.513 99.5,112.5C 94.1667,112.5 88.8333,112.5 83.5,112.5C 83.1795,107.305 83.5128,102.305 84.5,97.5 Z"/></g>
<g><path style="opacity:1" fill="#93902e" d="M 112.5,98.5 C 117.833,98.5 123.167,98.5 128.5,98.5C 128.817,102.702 128.483,106.702 127.5,110.5C 127.5,106.833 127.5,103.167 127.5,99.5C 122.305,99.8205 117.305,99.4872 112.5,98.5 Z"/></g>
<g><path style="opacity:1" fill="#8c8d33" d="M 101.5,83.5 C 101.5,88.8333 101.5,94.1667 101.5,99.5C 96.1667,99.5 90.8333,99.5 85.5,99.5C 90.3054,98.5128 95.3054,98.1795 100.5,98.5C 100.179,93.3054 100.513,88.3054 101.5,83.5 Z"/></g>
<g><path style="opacity:1" fill="#efb700" d="M 101.5,83.5 C 105.167,83.5 108.833,83.5 112.5,83.5C 112.5,88.5 112.5,93.5 112.5,98.5C 117.305,99.4872 122.305,99.8205 127.5,99.5C 127.5,103.167 127.5,106.833 127.5,110.5C 122.5,110.5 117.5,110.5 112.5,110.5C 112.5,115.5 112.5,120.5 112.5,125.5C 108.833,125.5 105.167,125.5 101.5,125.5C 101.5,120.5 101.5,115.5 101.5,110.5C 96.1667,110.5 90.8333,110.5 85.5,110.5C 85.5,106.833 85.5,103.167 85.5,99.5C 90.8333,99.5 96.1667,99.5 101.5,99.5C 101.5,94.1667 101.5,88.8333 101.5,83.5 Z"/></g>
</svg>
