<svg width="90" height="110" viewBox="0 0 90 110" fill="none" xmlns="http://www.w3.org/2000/svg">
<mask id="path-1-inside-1_1_11" fill="white">
<path fill-rule="evenodd" clip-rule="evenodd" d="M42.6038 0L36 7.6618L76.0181 53.7517L38.4059 102.371L45.3803 109.58L86.2559 56.743L89.0535 53.4972L88.9019 53.3227L89.0889 53.081L85.2162 49.0778L42.6038 0Z"/>
</mask>
<path fill-rule="evenodd" clip-rule="evenodd" d="M42.6038 0L36 7.6618L76.0181 53.7517L38.4059 102.371L45.3803 109.58L86.2559 56.743L89.0535 53.4972L88.9019 53.3227L89.0889 53.081L85.2162 49.0778L42.6038 0Z" fill="#1E1E1E"/>
<path d="M36 7.6618L35.2425 7.00893L34.6777 7.6642L35.2449 8.31742L36 7.6618ZM42.6038 0L43.3589 -0.655619L42.6011 -1.52847L41.8464 -0.652873L42.6038 0ZM76.0181 53.7517L76.8091 54.3636L77.3107 53.7151L76.7732 53.0961L76.0181 53.7517ZM38.4059 102.371L37.6149 101.759L37.0851 102.444L37.6872 103.066L38.4059 102.371ZM45.3803 109.58L44.6616 110.276L45.4646 111.106L46.1713 110.192L45.3803 109.58ZM86.2559 56.743L85.4984 56.0901L85.4812 56.1102L85.465 56.1311L86.2559 56.743ZM89.0535 53.4972L89.811 54.1501L90.3757 53.4948L89.8086 52.8416L89.0535 53.4972ZM88.9019 53.3227L88.111 52.7108L87.6093 53.3592L88.1468 53.9783L88.9019 53.3227ZM89.0889 53.081L89.8798 53.6929L90.4096 53.0081L89.8076 52.3857L89.0889 53.081ZM85.2162 49.0778L84.4611 49.7334L84.4788 49.7537L84.4975 49.773L85.2162 49.0778ZM36.7575 8.31467L43.3613 0.652873L41.8464 -0.652873L35.2425 7.00893L36.7575 8.31467ZM76.7732 53.0961L36.7551 7.00618L35.2449 8.31742L75.2631 54.4073L76.7732 53.0961ZM39.1968 102.983L76.8091 54.3636L75.2272 53.1398L37.6149 101.759L39.1968 102.983ZM46.099 108.885L39.1246 101.676L37.6872 103.066L44.6616 110.276L46.099 108.885ZM85.465 56.1311L44.5894 108.969L46.1713 110.192L87.0469 57.3549L85.465 56.1311ZM88.296 52.8444L85.4984 56.0901L87.0134 57.3959L89.811 54.1501L88.296 52.8444ZM88.1468 53.9783L88.2984 54.1529L89.8086 52.8416L89.657 52.6671L88.1468 53.9783ZM88.2979 52.4691L88.111 52.7108L89.6929 53.9346L89.8798 53.6929L88.2979 52.4691ZM84.4975 49.773L88.3701 53.7763L89.8076 52.3857L85.935 48.3825L84.4975 49.773ZM41.8487 0.655619L84.4611 49.7334L85.9713 48.4221L43.3589 -0.655619L41.8487 0.655619Z" fill="white" mask="url(#path-1-inside-1_1_11)"/>
<mask id="path-3-inside-2_1_11" fill="white">
<path fill-rule="evenodd" clip-rule="evenodd" d="M6.60383 0L0 7.6618L40.0181 53.7517L2.40589 102.371L9.38031 109.58L50.2559 56.743L53.0535 53.4972L52.9019 53.3227L53.0889 53.081L49.2162 49.0778L6.60383 0Z"/>
</mask>
<path fill-rule="evenodd" clip-rule="evenodd" d="M6.60383 0L0 7.6618L40.0181 53.7517L2.40589 102.371L9.38031 109.58L50.2559 56.743L53.0535 53.4972L52.9019 53.3227L53.0889 53.081L49.2162 49.0778L6.60383 0Z" fill="#1E1E1E"/>
<path d="M0 7.6618L-0.757467 7.00893L-1.32226 7.6642L-0.755092 8.31742L0 7.6618ZM6.60383 0L7.35892 -0.655619L6.60105 -1.52847L5.84636 -0.652873L6.60383 0ZM40.0181 53.7517L40.8091 54.3636L41.3107 53.7151L40.7732 53.0961L40.0181 53.7517ZM2.40589 102.371L1.61494 101.759L1.08514 102.444L1.68716 103.066L2.40589 102.371ZM9.38031 109.58L8.66158 110.276L9.46458 111.106L10.1713 110.192L9.38031 109.58ZM50.2559 56.743L49.4984 56.0901L49.4812 56.1102L49.465 56.1311L50.2559 56.743ZM53.0535 53.4972L53.811 54.1501L54.3757 53.4948L53.8086 52.8416L53.0535 53.4972ZM52.9019 53.3227L52.111 52.7108L51.6093 53.3592L52.1468 53.9783L52.9019 53.3227ZM53.0889 53.081L53.8798 53.6929L54.4096 53.0081L53.8076 52.3857L53.0889 53.081ZM49.2162 49.0778L48.4611 49.7334L48.4788 49.7537L48.4975 49.773L49.2162 49.0778ZM0.757467 8.31467L7.36129 0.652873L5.84636 -0.652873L-0.757467 7.00893L0.757467 8.31467ZM40.7732 53.0961L0.755092 7.00618L-0.755092 8.31742L39.2631 54.4073L40.7732 53.0961ZM3.19684 102.983L40.8091 54.3636L39.2272 53.1398L1.61494 101.759L3.19684 102.983ZM10.099 108.885L3.12463 101.676L1.68716 103.066L8.66158 110.276L10.099 108.885ZM49.465 56.1311L8.58936 108.969L10.1713 110.192L51.0469 57.3549L49.465 56.1311ZM52.296 52.8444L49.4984 56.0901L51.0134 57.3959L53.811 54.1501L52.296 52.8444ZM52.1468 53.9783L52.2984 54.1529L53.8086 52.8416L53.657 52.6671L52.1468 53.9783ZM52.2979 52.4691L52.111 52.7108L53.6929 53.9346L53.8798 53.6929L52.2979 52.4691ZM48.4975 49.773L52.3701 53.7763L53.8076 52.3857L49.935 48.3825L48.4975 49.773ZM5.84873 0.655619L48.4611 49.7334L49.9713 48.4221L7.35892 -0.655619L5.84873 0.655619Z" fill="white" mask="url(#path-3-inside-2_1_11)"/>
</svg>
