<?xml version="1.0" encoding="UTF-8"?>
<!DOCTYPE svg PUBLIC "-//W3C//DTD SVG 1.1//EN" "http://www.w3.org/Graphics/SVG/1.1/DTD/svg11.dtd">
<svg xmlns="http://www.w3.org/2000/svg" version="1.1" width="145px" height="142px" style="shape-rendering:geometricPrecision; text-rendering:geometricPrecision; image-rendering:optimizeQuality; fill-rule:evenodd; clip-rule:evenodd" xmlns:xlink="http://www.w3.org/1999/xlink">
<g><path style="opacity:1" fill="#eab506" d="M 48.5,9.5 C 49.1217,10.6266 49.955,11.6266 51,12.5C 51.6667,25.1667 51.6667,37.8333 51,50.5C 50.5,51 50,51.5 49.5,52C 37.1712,52.4999 24.8378,52.6665 12.5,52.5C 10.5891,52.4257 9.42244,51.4257 9,49.5C 8.33333,37.1667 8.33333,24.8333 9,12.5C 9.83333,11.6667 10.6667,10.8333 11.5,10C 23.8288,9.50012 36.1622,9.33346 48.5,9.5 Z"/></g>
<g><path style="opacity:0.012" fill="#019277" d="M 2.5,12.5 C 3.83333,13.1667 3.83333,13.1667 2.5,12.5 Z"/></g>
<g><path style="opacity:1" fill="#0d6575" d="M 48.5,8.5 C 48.5,8.83333 48.5,9.16667 48.5,9.5C 36.1622,9.33346 23.8288,9.50012 11.5,10C 10.6667,10.8333 9.83333,11.6667 9,12.5C 8.33333,24.8333 8.33333,37.1667 9,49.5C 9.42244,51.4257 10.5891,52.4257 12.5,52.5C 24.5,53.1667 36.5,53.8333 48.5,54.5C 35.0679,54.963 21.7345,54.463 8.5,53C 7.80945,51.9326 7.30945,50.7659 7,49.5C 6.33333,37.1667 6.33333,24.8333 7,12.5C 7.46524,11.0692 8.29857,9.90252 9.5,9C 22.5049,7.20422 35.5049,7.03755 48.5,8.5 Z"/></g>
<g><path style="opacity:0.02" fill="#018677" d="M 2.5,13.5 C 1.83333,14.1667 1.83333,14.1667 2.5,13.5 Z"/></g>
<g><path style="opacity:1" fill="#336a66" d="M 48.5,8.5 C 50.7525,8.91563 52.2525,10.249 53,12.5C 53.6667,25.1667 53.6667,37.8333 53,50.5C 52.2525,52.751 50.7525,54.0844 48.5,54.5C 36.5,53.8333 24.5,53.1667 12.5,52.5C 24.8378,52.6665 37.1712,52.4999 49.5,52C 50,51.5 50.5,51 51,50.5C 51.6667,37.8333 51.6667,25.1667 51,12.5C 49.955,11.6266 49.1217,10.6266 48.5,9.5C 48.5,9.16667 48.5,8.83333 48.5,8.5 Z"/></g>
<g><path style="opacity:1" fill="#226c7f" d="M 79.5,4.5 C 92.9627,6.7629 97.796,14.4296 94,27.5C 88.1986,35.8735 80.6986,37.7068 71.5,33C 62.0691,24.0231 62.4024,15.3564 72.5,7C 74.9269,6.09774 77.2603,5.2644 79.5,4.5 Z"/></g>
<g><path style="opacity:1" fill="#fcfdfd" d="M 75.5,7.5 C 88.1565,6.32444 93.9899,11.9911 93,24.5C 89.7122,32.276 83.8789,35.1093 75.5,33C 67.068,27.6882 65.2347,20.5216 70,11.5C 71.8121,10.0229 73.6455,8.6896 75.5,7.5 Z"/></g>
<g><path style="opacity:1" fill="#2f687c" d="M 35.5,36.5 C 34.5233,39.2869 34.19,42.2869 34.5,45.5C 31.5,45.5 28.5,45.5 25.5,45.5C 25.5,42.5 25.5,39.5 25.5,36.5C 22.1667,36.5 18.8333,36.5 15.5,36.5C 15.5,33.1667 15.5,29.8333 15.5,26.5C 18.8333,26.5 22.1667,26.5 25.5,26.5C 25.5,23.1667 25.5,19.8333 25.5,16.5C 28.8333,16.5 32.1667,16.5 35.5,16.5C 35.5,19.8333 35.5,23.1667 35.5,26.5C 38.5,26.5 41.5,26.5 44.5,26.5C 44.5,29.8333 44.5,33.1667 44.5,36.5C 41.5,36.5 38.5,36.5 35.5,36.5 Z"/></g>
<g><path style="opacity:1" fill="#fafbfc" d="M 27.5,18.5 C 29.5,18.5 31.5,18.5 33.5,18.5C 33.5,21.8333 33.5,25.1667 33.5,28.5C 36.8333,28.5 40.1667,28.5 43.5,28.5C 43.5,30.5 43.5,32.5 43.5,34.5C 40.1667,34.5 36.8333,34.5 33.5,34.5C 33.5,37.8333 33.5,41.1667 33.5,44.5C 31.1667,44.5 28.8333,44.5 26.5,44.5C 26.5,41.1667 26.5,37.8333 26.5,34.5C 23.5,34.5 20.5,34.5 17.5,34.5C 17.5,32.5 17.5,30.5 17.5,28.5C 20.8333,28.5 24.1667,28.5 27.5,28.5C 27.5,25.1667 27.5,21.8333 27.5,18.5 Z"/></g>
<g><path style="opacity:1" fill="#5d7b47" d="M 35.5,36.5 C 35.5,39.8333 35.5,43.1667 35.5,46.5C 31.9581,46.8128 28.6248,46.4794 25.5,45.5C 28.5,45.5 31.5,45.5 34.5,45.5C 34.19,42.2869 34.5233,39.2869 35.5,36.5 Z"/></g>
<g><path style="opacity:1" fill="#2c6875" d="M 105.5,75.5 C 105.217,74.7109 104.717,74.0442 104,73.5C 103.833,79.1667 103.667,84.8333 103.5,90.5C 103.504,96.5415 104.171,102.208 105.5,107.5C 116.284,108.207 126.951,109.707 137.5,112C 141.5,116 141.5,120 137.5,124C 112.833,124.667 88.1667,124.667 63.5,124C 51.2608,117.431 39.2608,110.431 27.5,103C 22.6041,97.6029 22.2707,91.9362 26.5,86C 27.8333,85.3333 29.1667,84.6667 30.5,84C 33.5302,83.7118 36.3635,83.5451 39,83.5C 45.6667,70.1667 52.3333,56.8333 59,43.5C 60.6374,41.1898 62.804,39.6898 65.5,39C 76.8626,38.279 88.1959,38.6123 99.5,40C 104.644,44.8129 109.477,49.9795 114,55.5C 118.238,49.1218 122.738,48.9552 127.5,55C 129.326,55.2917 131.159,55.125 133,54.5C 137.734,55.0673 140.234,57.7339 140.5,62.5C 140.444,65.1113 139.444,67.278 137.5,69C 129.621,73.4393 121.621,77.6059 113.5,81.5C 109.351,81.3377 106.684,79.3377 105.5,75.5 Z"/></g>
<g><path style="opacity:1" fill="#e7b309" d="M 118.5,52.5 C 125.486,52.331 127.153,55.1643 123.5,61C 116.416,61.475 114.749,58.6417 118.5,52.5 Z"/></g>
<g><path style="opacity:1" fill="#fafbfc" d="M 94.5,41.5 C 98.2727,40.8224 101.106,42.1558 103,45.5C 106.333,49.5 109.667,53.5 113,57.5C 113.617,58.4491 113.451,59.2825 112.5,60C 104.764,64.6939 96.4307,66.6939 87.5,66C 83.4515,62.3996 81.7849,57.8996 82.5,52.5C 89.7009,52.2983 93.7009,48.6316 94.5,41.5 Z"/></g>
<g><path style="opacity:1" fill="#eef3f5" d="M 71.5,40.5 C 78.5,40.5 85.5,40.5 92.5,40.5C 91.9244,46.9098 88.4244,50.5765 82,51.5C 75.6004,50.6004 72.1004,46.9337 71.5,40.5 Z"/></g>
<g><path style="opacity:1" fill="#fbfcfc" d="M 64.5,40.5 C 66.1992,40.3398 67.8659,40.5065 69.5,41C 70.6471,47.3126 74.3138,51.1459 80.5,52.5C 80.399,64.2395 86.0657,69.4062 97.5,68C 103.597,66.0801 109.43,63.5801 115,60.5C 120.228,65.0543 124.395,64.221 127.5,58C 135.264,54.7779 138.764,57.2779 138,65.5C 130.762,70.3977 123.262,74.8977 115.5,79C 113.833,79.6667 112.167,79.6667 110.5,79C 108.041,76.5536 105.708,74.0536 103.5,71.5C 102.501,83.1477 102.168,94.8143 102.5,106.5C 92.863,105.195 83.1964,104.028 73.5,103C 70.6484,102.731 67.9818,101.897 65.5,100.5C 64.8194,92.2753 64.1527,84.1086 63.5,76C 62.5,75.3333 61.5,75.3333 60.5,76C 56.6088,80.9652 52.6088,85.7986 48.5,90.5C 45.6595,88.9136 42.9928,87.0803 40.5,85C 47.3998,72.0337 53.8998,58.867 60,45.5C 61.0591,43.3408 62.5591,41.6741 64.5,40.5 Z"/></g>
<g><path style="opacity:1" fill="#156472" d="M 11.5,59.5 C 25.1208,60.2748 30.6208,67.2748 28,80.5C 22.5534,88.8149 15.3867,90.6482 6.5,86C 0.030657,80.1351 -1.13601,73.3017 3,65.5C 5.67129,63.0976 8.50462,61.0976 11.5,59.5 Z"/></g>
<g><path style="opacity:1" fill="#ebb506" d="M 10.5,61.5 C 22.1799,60.6815 27.6799,66.0148 27,77.5C 22.4781,86.6732 15.6448,88.8399 6.5,84C 0.174528,75.0686 1.50786,67.5686 10.5,61.5 Z"/></g>
<g><path style="opacity:1" fill="#00a279" d="M 60.5,77.5 C 61.821,80.5982 62.4877,84.0982 62.5,88C 62.1667,91.5 61.8333,95 61.5,98.5C 57.6641,96.4164 53.9974,94.083 50.5,91.5C 54.2714,87.0753 57.6047,82.4087 60.5,77.5 Z"/></g>
<g><path style="opacity:1" fill="#eeb702" d="M 30.5,85.5 C 32.8568,85.3367 35.1902,85.5034 37.5,86C 47.6051,92.2251 57.9385,98.2251 68.5,104C 90.7631,107.544 113.096,110.544 135.5,113C 138.978,115.706 139.311,118.706 136.5,122C 112.167,122.667 87.8333,122.667 63.5,122C 50.4437,115.055 37.9437,107.222 26,98.5C 24.3794,92.9227 25.8794,88.5894 30.5,85.5 Z"/></g>
<g><path style="opacity:0.352" fill="#018e77" d="M 105.5,75.5 C 104.182,86.0685 104.182,96.7352 105.5,107.5C 104.171,102.208 103.504,96.5415 103.5,90.5C 103.667,84.8333 103.833,79.1667 104,73.5C 104.717,74.0442 105.217,74.7109 105.5,75.5 Z"/></g>
<g><path style="opacity:1" fill="#18697b" d="M 2.5,90.5 C 4.65472,90.372 6.65472,90.872 8.5,92C 25.1667,103.333 41.8333,114.667 58.5,126C 85.1667,126.333 111.833,126.667 138.5,127C 141.167,129.667 141.167,132.333 138.5,135C 111.167,135.667 83.8333,135.667 56.5,135C 38.8333,123.333 21.1667,111.667 3.5,100C -0.0441408,97.1268 -0.377474,93.9601 2.5,90.5 Z"/></g>
<g><path style="opacity:1" fill="#f8fafb" d="M 3.5,92.5 C 21.9114,103.55 39.9114,115.384 57.5,128C 84.1667,128.333 110.833,128.667 137.5,129C 138.833,130.333 138.833,131.667 137.5,133C 110.5,133.667 83.5,133.667 56.5,133C 38.8333,121.167 21.1667,109.333 3.5,97.5C 2.33363,95.8327 2.33363,94.166 3.5,92.5 Z"/></g>
</svg>
