<?xml version="1.0" encoding="UTF-8"?>
<!DOCTYPE svg PUBLIC "-//W3C//DTD SVG 1.1//EN" "http://www.w3.org/Graphics/SVG/1.1/DTD/svg11.dtd">
<svg xmlns="http://www.w3.org/2000/svg" version="1.1" width="98px" height="110px" style="shape-rendering:geometricPrecision; text-rendering:geometricPrecision; image-rendering:optimizeQuality; fill-rule:evenodd; clip-rule:evenodd" xmlns:xlink="http://www.w3.org/1999/xlink">
<g><path style="opacity:1" fill="#f8fafb" d="M 69.5,3.5 C 70.552,3.35055 71.552,3.51722 72.5,4C 80.0801,11.0759 87.0801,18.5759 93.5,26.5C 89.9202,31.586 85.7535,36.2527 81,40.5C 82.1315,43.3398 82.7982,46.3398 83,49.5C 80.1667,52.3333 77.3333,55.1667 74.5,58C 73.5,58.6667 72.5,58.6667 71.5,58C 69.1622,53.7784 66.8289,53.6117 64.5,57.5C 55.9216,50.4263 47.7549,42.7596 40,34.5C 39.5357,33.9056 39.369,33.2389 39.5,32.5C 40.2899,31.2058 41.2899,30.0391 42.5,29C 39.4203,27.2894 38.2536,24.7894 39,21.5C 41.5,19 44,16.5 46.5,14C 49.7417,13.0145 52.4083,13.8478 54.5,16.5C 59.2439,11.748 64.2439,7.41463 69.5,3.5 Z"/></g>
<g><path style="opacity:1" fill="#1bdba1" d="M 86.5,28.5 C 78.8333,35.5 71.5,42.8333 64.5,50.5C 63.448,50.6495 62.448,50.4828 61.5,50C 56.6667,45.1667 51.8333,40.3333 47,35.5C 46.3333,34.5 46.3333,33.5 47,32.5C 54.3756,24.7895 62.0423,17.4561 70,10.5C 75.623,15.1208 80.9563,20.1208 86,25.5C 86.4828,26.448 86.6495,27.448 86.5,28.5 Z"/></g>
<g><path style="opacity:1" fill="#1b7482" d="M 67.5,2.5 C 68.4916,2.32842 69.1583,2.66175 69.5,3.5C 64.2439,7.41463 59.2439,11.748 54.5,16.5C 52.4083,13.8478 49.7417,13.0145 46.5,14C 44,16.5 41.5,19 39,21.5C 38.2536,24.7894 39.4203,27.2894 42.5,29C 41.2899,30.0391 40.2899,31.2058 39.5,32.5C 38.5,33.5 37.5,34.5 36.5,35.5C 32.2073,38.1059 29.5406,41.7725 28.5,46.5C 28.1667,46.5 27.8333,46.5 27.5,46.5C 26.3789,44.9106 26.5456,43.2439 28,41.5C 32.0156,37.6516 35.8489,33.6516 39.5,29.5C 37.0233,26.6469 36.5233,23.6469 38,20.5C 40.8333,17.6667 43.6667,14.8333 46.5,12C 49.85,11.0701 52.6833,11.9035 55,14.5C 59.0356,10.2964 63.2022,6.29642 67.5,2.5 Z"/></g>
<g><path style="opacity:1" fill="#e0faf2" d="M 72.5,23.5 C 74.1667,23.5 75.8333,23.5 77.5,23.5C 78.2579,27.7326 76.5912,30.3993 72.5,31.5C 70.7336,31.5658 69.7336,30.7324 69.5,29C 70.1242,26.9149 71.1242,25.0816 72.5,23.5 Z"/></g>
<g><path style="opacity:1" fill="#197182" d="M 87.5,28.5 C 87.1667,28.5 86.8333,28.5 86.5,28.5C 86.6495,27.448 86.4828,26.448 86,25.5C 80.9563,20.1208 75.623,15.1208 70,10.5C 62.0423,17.4561 54.3756,24.7895 47,32.5C 46.3333,33.5 46.3333,34.5 47,35.5C 51.8333,40.3333 56.6667,45.1667 61.5,50C 62.448,50.4828 63.448,50.6495 64.5,50.5C 64.5,50.8333 64.5,51.1667 64.5,51.5C 63.1266,51.6567 61.7932,51.49 60.5,51C 55.6667,46.1667 50.8333,41.3333 46,36.5C 45.3333,34.8333 45.3333,33.1667 46,31.5C 53.4453,23.3805 61.4453,16.0472 70,9.5C 76.2159,13.7059 81.8826,18.7059 87,24.5C 87.49,25.7932 87.6567,27.1266 87.5,28.5 Z"/></g>
<g><path style="opacity:1" fill="#e4fbf3" d="M 68.5,17.5 C 71.9103,17.3838 73.2436,19.0504 72.5,22.5C 71.5,22.5 70.5,22.5 69.5,22.5C 68.162,27.6546 66.162,27.8213 63.5,23C 65.3367,21.3751 67.0034,19.5418 68.5,17.5 Z"/></g>
<g><path style="opacity:1" fill="#30e0a9" d="M 68.5,21.5 C 68.5,22.5 68.5,23.5 68.5,24.5C 67.5,24.5 66.5,24.5 65.5,24.5C 65.5,23.5 65.5,22.5 65.5,21.5C 66.5,21.5 67.5,21.5 68.5,21.5 Z"/></g>
<g><path style="opacity:1" fill="#51e4b5" d="M 68.5,21.5 C 68.9522,18.3259 69.9522,17.9925 71.5,20.5C 70.675,21.3857 69.675,21.719 68.5,21.5 Z"/></g>
<g><path style="opacity:1" fill="#31e0a9" d="M 74.5,24.5 C 77.0985,26.5844 76.5985,28.2511 73,29.5C 72.5,29.1667 72,28.8333 71.5,28.5C 72.1716,26.8405 73.1716,25.5072 74.5,24.5 Z"/></g>
<g><path style="opacity:1" fill="#e7fbf5" d="M 59.5,31.5 C 57.0274,31.0882 55.6941,32.0882 55.5,34.5C 54.3119,29.8404 56.3119,27.6737 61.5,28C 59.0614,28.5334 58.3948,29.7 59.5,31.5 Z"/></g>
<g><path style="opacity:1" fill="#41e2ae" d="M 59.5,31.5 C 59.3059,33.9118 57.9726,34.9118 55.5,34.5C 55.6941,32.0882 57.0274,31.0882 59.5,31.5 Z"/></g>
<g><path style="opacity:1" fill="#d8f9ef" d="M 64.5,32.5 C 66.595,32.7598 67.9283,33.9264 68.5,36C 67.3333,38.5 65.5,40.3333 63,41.5C 61.3783,41.0459 60.2116,40.0459 59.5,38.5C 60.497,35.845 62.1637,33.845 64.5,32.5 Z"/></g>
<g><path style="opacity:1" fill="#759bae" d="M 39.5,32.5 C 39.369,33.2389 39.5357,33.9056 40,34.5C 47.7549,42.7596 55.9216,50.4263 64.5,57.5C 63.5,58.5 62.5,59.5 61.5,60.5C 54.4263,51.9216 46.7596,43.7549 38.5,36C 37.9056,35.5357 37.2389,35.369 36.5,35.5C 37.5,34.5 38.5,33.5 39.5,32.5 Z"/></g>
<g><path style="opacity:1" fill="#e6fbf4" d="M 59.5,31.5 C 60.7994,33.1534 60.4661,34.6534 58.5,36C 57.0024,36.5847 56.0024,36.0847 55.5,34.5C 57.9726,34.9118 59.3059,33.9118 59.5,31.5 Z"/></g>
<g><path style="opacity:1" fill="#20dea4" d="M 64.5,34.5 C 67.0985,36.5844 66.5985,38.2511 63,39.5C 62.5,39.1667 62,38.8333 61.5,38.5C 62.5244,37.1482 63.5244,35.8149 64.5,34.5 Z"/></g>
<g><path style="opacity:1" fill="#fbfcfc" d="M 36.5,35.5 C 37.2389,35.369 37.9056,35.5357 38.5,36C 46.7596,43.7549 54.4263,51.9216 61.5,60.5C 58.7029,62.795 56.0362,65.295 53.5,68C 52.5,68.6667 51.5,68.6667 50.5,68C 43.2982,60.6308 35.9649,53.4641 28.5,46.5C 29.5406,41.7725 32.2073,38.1059 36.5,35.5 Z"/></g>
<g><path style="opacity:1" fill="#32878e" d="M 67.5,2.5 C 69.2884,1.37753 71.2884,1.21086 73.5,2C 80.3333,8.83333 87.1667,15.6667 94,22.5C 95.3014,24.3646 95.6347,26.3646 95,28.5C 91.201,33.3006 87.0343,37.8006 82.5,42C 84.9221,44.0027 85.7554,46.5027 85,49.5C 82.5374,52.9646 79.7041,56.1312 76.5,59C 73.2893,59.7982 70.2893,59.2982 67.5,57.5C 62.7723,62.3976 57.6056,66.731 52,70.5C 47.7422,68.4107 44.2422,65.4107 41.5,61.5C 39.1667,58.5 36.5,55.8333 33.5,53.5C 30.7573,51.7607 28.7573,49.4274 27.5,46.5C 27.8333,46.5 28.1667,46.5 28.5,46.5C 35.9649,53.4641 43.2982,60.6308 50.5,68C 51.5,68.6667 52.5,68.6667 53.5,68C 56.0362,65.295 58.7029,62.795 61.5,60.5C 62.5,59.5 63.5,58.5 64.5,57.5C 66.8289,53.6117 69.1622,53.7784 71.5,58C 72.5,58.6667 73.5,58.6667 74.5,58C 77.3333,55.1667 80.1667,52.3333 83,49.5C 82.7982,46.3398 82.1315,43.3398 81,40.5C 85.7535,36.2527 89.9202,31.586 93.5,26.5C 87.0801,18.5759 80.0801,11.0759 72.5,4C 71.552,3.51722 70.552,3.35055 69.5,3.5C 69.1583,2.66175 68.4916,2.32842 67.5,2.5 Z"/></g>
<g><path style="opacity:1" fill="#739aac" d="M 86.5,28.5 C 86.8333,28.5 87.1667,28.5 87.5,28.5C 80.1667,36.5 72.5,44.1667 64.5,51.5C 64.5,51.1667 64.5,50.8333 64.5,50.5C 71.5,42.8333 78.8333,35.5 86.5,28.5 Z"/></g>
<g><path style="opacity:1" fill="#2e7889" d="M 43.5,47.5 C 48.8054,48.2414 50.1388,50.7414 47.5,55C 40.17,55.4855 38.8367,52.9855 43.5,47.5 Z"/></g>
<g><path style="opacity:1" fill="#09da9f" d="M 42.5,49.5 C 46.1378,48.7366 47.6378,50.0699 47,53.5C 43.3307,55.0093 41.8307,53.6759 42.5,49.5 Z"/></g>
<g><path style="opacity:1" fill="#2bd7a5" d="M 33.5,53.5 C 36.5,55.8333 39.1667,58.5 41.5,61.5C 40.8333,62.1667 40.1667,62.8333 39.5,63.5C 39.5,63.1667 39.5,62.8333 39.5,62.5C 37.5,59.8333 35.1667,57.5 32.5,55.5C 32.1667,55.5 31.8333,55.5 31.5,55.5C 32.1667,54.8333 32.8333,54.1667 33.5,53.5 Z"/></g>
<g><path style="opacity:1" fill="#fafbfc" d="M 32.5,55.5 C 35.1667,57.5 37.5,59.8333 39.5,62.5C 37.2273,62.9568 35.894,64.2901 35.5,66.5C 31.8104,69.1521 29.1438,72.1521 27.5,75.5C 30.8544,72.8123 33.8544,69.8123 36.5,66.5C 39.9936,65.1652 41.1603,66.4985 40,70.5C 36.4144,73.3841 33.7478,76.7174 32,80.5C 34.7143,77.4489 37.7143,74.7822 41,72.5C 41.772,72.6448 42.4387,72.9781 43,73.5C 43.6667,75.1667 43.6667,76.8333 43,78.5C 40.8333,80.6667 38.6667,82.8333 36.5,85C 37.1667,85.6667 37.8333,85.6667 38.5,85C 40.3848,82.7776 42.5515,80.9443 45,79.5C 46.8853,79.8621 47.7186,81.0287 47.5,83C 42.6245,89.8846 36.9579,96.218 30.5,102C 20.1344,108.185 11.9677,106.018 6,95.5C 4.43079,84.8929 4.09746,74.2262 5,63.5C 6.46587,61.6751 8.2992,61.1751 10.5,62C 12.1667,64.3333 13.8333,66.6667 15.5,69C 16.8333,69.6667 18.1667,69.6667 19.5,69C 24.0367,64.6312 28.3701,60.1312 32.5,55.5 Z"/></g>
<g><path style="opacity:1" fill="#267d88" d="M 31.5,55.5 C 31.8333,55.5 32.1667,55.5 32.5,55.5C 28.3701,60.1312 24.0367,64.6312 19.5,69C 18.1667,69.6667 16.8333,69.6667 15.5,69C 13.8333,66.6667 12.1667,64.3333 10.5,62C 8.2992,61.1751 6.46587,61.6751 5,63.5C 4.09746,74.2262 4.43079,84.8929 6,95.5C 11.9677,106.018 20.1344,108.185 30.5,102C 36.9579,96.218 42.6245,89.8846 47.5,83C 47.7186,81.0287 46.8853,79.8621 45,79.5C 42.5515,80.9443 40.3848,82.7776 38.5,85C 37.8333,85.6667 37.1667,85.6667 36.5,85C 38.6667,82.8333 40.8333,80.6667 43,78.5C 43.6667,76.8333 43.6667,75.1667 43,73.5C 42.4387,72.9781 41.772,72.6448 41,72.5C 37.7143,74.7822 34.7143,77.4489 32,80.5C 33.7478,76.7174 36.4144,73.3841 40,70.5C 41.1603,66.4985 39.9936,65.1652 36.5,66.5C 36.1667,66.5 35.8333,66.5 35.5,66.5C 35.894,64.2901 37.2273,62.9568 39.5,62.5C 39.5,62.8333 39.5,63.1667 39.5,63.5C 42.9286,69.3569 46.0952,75.3569 49,81.5C 49.5205,83.2889 49.1871,84.9556 48,86.5C 41.4313,93.739 34.2646,100.239 26.5,106C 13.7252,108.202 5.89184,103.036 3,90.5C 2.33333,81.5 2.33333,72.5 3,63.5C 5.57297,59.191 8.90631,58.5244 13,61.5C 14.0804,63.9962 15.4138,66.3295 17,68.5C 22.0023,64.3297 26.8356,59.9964 31.5,55.5 Z"/></g>
<g><path style="opacity:1" fill="#7da0b2" d="M 35.5,66.5 C 35.8333,66.5 36.1667,66.5 36.5,66.5C 33.8544,69.8123 30.8544,72.8123 27.5,75.5C 29.1438,72.1521 31.8104,69.1521 35.5,66.5 Z"/></g>
<g><path style="opacity:0.008" fill="#09c296" d="M 8.5,109.5 C 7.83333,108.167 7.83333,108.167 8.5,109.5 Z"/></g>
</svg>
