<?xml version="1.0" encoding="UTF-8"?>
<!DOCTYPE svg PUBLIC "-//W3C//DTD SVG 1.1//EN" "http://www.w3.org/Graphics/SVG/1.1/DTD/svg11.dtd">
<svg xmlns="http://www.w3.org/2000/svg" version="1.1" width="96px" height="115px" style="shape-rendering:geometricPrecision; text-rendering:geometricPrecision; image-rendering:optimizeQuality; fill-rule:evenodd; clip-rule:evenodd" xmlns:xlink="http://www.w3.org/1999/xlink">
<g><path style="opacity:1" fill="#06a57b" d="M 65.5,51.5 C 62.3113,47.1492 58.3113,43.6492 53.5,41C 44.709,39.4405 40.209,42.9405 40,51.5C 44.4037,61.3102 50.0704,70.3102 57,78.5C 57.4983,81.8168 57.665,85.1501 57.5,88.5C 45.1667,88.5 32.8333,88.5 20.5,88.5C 19.828,87.7326 18.9947,87.0659 18,86.5C 17.5002,77.8397 17.3336,69.1731 17.5,60.5C 17.3334,42.4969 17.5001,24.4969 18,6.5C 18.9025,5.29857 20.0692,4.46524 21.5,4C 34.8333,3.33333 48.1667,3.33333 61.5,4C 62.9308,4.46524 64.0975,5.29857 65,6.5C 65.4999,21.4963 65.6666,36.4963 65.5,51.5 Z"/></g>
<g><path style="opacity:1" fill="#08a28d" d="M 16.5,6.5 C 16.5,8.5 16.5,10.5 16.5,12.5C 14.2646,12.7947 12.2646,12.4614 10.5,11.5C 12.1667,11.5 13.8333,11.5 15.5,11.5C 15.2155,9.58533 15.5489,7.91866 16.5,6.5 Z"/></g>
<g><path style="opacity:1" fill="#247a84" d="M 93.5,107.5 C 93.1667,107.5 92.8333,107.5 92.5,107.5C 92.6666,90.4967 92.4999,73.4967 92,56.5C 90.1195,50.406 86.9528,45.0726 82.5,40.5C 77.8086,36.6414 72.9753,32.9747 68,29.5C 67.8292,37.6772 67.3292,45.6772 66.5,53.5C 65.6618,53.1583 65.3284,52.4916 65.5,51.5C 65.6666,36.4963 65.4999,21.4963 65,6.5C 64.0975,5.29857 62.9308,4.46524 61.5,4C 48.1667,3.33333 34.8333,3.33333 21.5,4C 20.0692,4.46524 18.9025,5.29857 18,6.5C 17.5001,24.4969 17.3334,42.4969 17.5,60.5C 15.1667,60.5 12.8333,60.5 10.5,60.5C 5.2241,59.707 3.39077,56.707 5,51.5C 5.37424,50.5838 5.87424,49.7504 6.5,49C 9.3926,47.8512 12.3926,47.3512 15.5,47.5C 15.5,46.1667 15.5,44.8333 15.5,43.5C 12.3926,43.6488 9.3926,43.1488 6.5,42C 2.86363,33.4358 5.86363,29.2691 15.5,29.5C 15.5,28.1667 15.5,26.8333 15.5,25.5C 12.4318,25.4533 9.43184,24.9533 6.5,24C 1.75576,21.4025 0.422424,17.5691 2.5,12.5C 4.96071,10.2601 7.62738,9.92674 10.5,11.5C 12.2646,12.4614 14.2646,12.7947 16.5,12.5C 16.5,10.5 16.5,8.5 16.5,6.5C 16.5743,4.5891 17.5743,3.42244 19.5,3C 34.1667,2.33333 48.8333,2.33333 63.5,3C 64.4162,3.37424 65.2496,3.87424 66,4.5C 67.2669,12.0624 67.9336,19.7291 68,27.5C 74.9082,31.738 81.2415,36.738 87,42.5C 89.5272,46.2211 91.5272,50.2211 93,54.5C 93.2542,70.3443 93.7542,86.1776 94.5,102C 94.4944,104.033 94.1611,105.866 93.5,107.5 Z"/></g>
<g><path style="opacity:1" fill="#f7f9fa" d="M 4.5,12.5 C 8.11853,13.2436 11.7852,13.577 15.5,13.5C 15.5,16.8333 15.5,20.1667 15.5,23.5C 8.96913,24.9252 4.63579,22.5918 2.5,16.5C 2.75166,14.9271 3.41833,13.5938 4.5,12.5 Z"/></g>
<g><path style="opacity:1" fill="#1c6d7e" d="M 39.5,5.5 C 43.9764,5.80027 45.3097,7.96693 43.5,12C 38.5705,12.427 37.2372,10.2604 39.5,5.5 Z"/></g>
<g><path style="opacity:1" fill="#e0e9ed" d="M 39.5,7.5 C 42.1662,7.06577 43.3329,8.06577 43,10.5C 40.3422,11.694 39.1756,10.694 39.5,7.5 Z"/></g>
<g><path style="opacity:1" fill="#fbfdfd" d="M 30.5,31.5 C 30.5,29.5 30.5,27.5 30.5,25.5C 33.0593,25.8016 35.3926,25.4682 37.5,24.5C 38.4682,22.3926 38.8016,20.0593 38.5,17.5C 40.5,17.5 42.5,17.5 44.5,17.5C 44.5,19.8333 44.5,22.1667 44.5,24.5C 47.1667,24.5 49.8333,24.5 52.5,24.5C 52.5,26.8333 52.5,29.1667 52.5,31.5C 49.8333,31.5 47.1667,31.5 44.5,31.5C 44.5,34.1667 44.5,36.8333 44.5,39.5C 42.5,39.5 40.5,39.5 38.5,39.5C 38.5,36.8333 38.5,34.1667 38.5,31.5C 35.8333,31.5 33.1667,31.5 30.5,31.5 Z"/></g>
<g><path style="opacity:1" fill="#89d4c0" d="M 37.5,24.5 C 35.3926,25.4682 33.0593,25.8016 30.5,25.5C 30.5,27.5 30.5,29.5 30.5,31.5C 29.5318,29.3926 29.1984,27.0593 29.5,24.5C 32.1667,24.5 34.8333,24.5 37.5,24.5 Z"/></g>
<g><path style="opacity:1" fill="#fcfdfd" d="M 92.5,107.5 C 78.8293,107.667 65.1626,107.5 51.5,107C 46.579,102.991 43.9124,97.8246 43.5,91.5C 47.7147,89.5636 52.3814,88.8969 57.5,89.5C 58.1667,89.5 58.8333,89.5 59.5,89.5C 59.6167,96.2335 62.2834,101.734 67.5,106C 68.1667,106.667 68.8333,106.667 69.5,106C 61.7682,99.5268 59.1016,91.3602 61.5,81.5C 60.8233,78.1327 59.1567,75.466 56.5,73.5C 53.6009,68.7178 50.4342,64.0511 47,59.5C 39.7323,46.9864 42.899,42.3197 56.5,45.5C 58.0941,48.7642 60.4275,51.4309 63.5,53.5C 67.178,59.7898 71.8447,64.9565 77.5,69C 73.6207,64.626 69.9541,60.126 66.5,55.5C 66.5,54.8333 66.5,54.1667 66.5,53.5C 67.3292,45.6772 67.8292,37.6772 68,29.5C 72.9753,32.9747 77.8086,36.6414 82.5,40.5C 86.9528,45.0726 90.1195,50.406 92,56.5C 92.4999,73.4967 92.6666,90.4967 92.5,107.5 Z"/></g>
<g><path style="opacity:1" fill="#f7f9fa" d="M 8.5,31.5 C 10.8333,31.5 13.1667,31.5 15.5,31.5C 15.5,34.8333 15.5,38.1667 15.5,41.5C 9.16906,42.9709 6.00239,40.6376 6,34.5C 7.04499,33.6266 7.87833,32.6266 8.5,31.5 Z"/></g>
<g><path style="opacity:1" fill="#d3eee7" d="M 24.5,45.5 C 28.5138,45.3345 32.5138,45.5012 36.5,46C 36.9574,46.414 37.2907,46.914 37.5,47.5C 33.2047,48.6609 28.8713,48.8275 24.5,48C 23.4019,47.2303 23.4019,46.397 24.5,45.5 Z"/></g>
<g><path style="opacity:1" fill="#f7fafa" d="M 8.5,49.5 C 10.8333,49.5 13.1667,49.5 15.5,49.5C 15.5,52.8333 15.5,56.1667 15.5,59.5C 9.16906,60.9709 6.00239,58.6376 6,52.5C 7.04499,51.6266 7.87833,50.6266 8.5,49.5 Z"/></g>
<g><path style="opacity:1" fill="#e0f3ee" d="M 23.5,54.5 C 25.288,54.2148 26.9547,54.5481 28.5,55.5C 27.6667,55.8333 26.8333,56.1667 26,56.5C 24.6244,56.3158 23.7911,55.6491 23.5,54.5 Z"/></g>
<g><path style="opacity:1" fill="#fcfdfd" d="M 30.5,54.5 C 32.924,54.1924 35.2573,54.5258 37.5,55.5C 36.3333,55.8333 35.1667,56.1667 34,56.5C 32.3189,56.3917 31.1522,55.7251 30.5,54.5 Z"/></g>
<g><path style="opacity:1" fill="#417b92" d="M 63.5,53.5 C 64.5,54.1667 65.5,54.8333 66.5,55.5C 69.9541,60.126 73.6207,64.626 77.5,69C 71.8447,64.9565 67.178,59.7898 63.5,53.5 Z"/></g>
<g><path style="opacity:1" fill="#2f788a" d="M 56.5,45.5 C 42.899,42.3197 39.7323,46.9864 47,59.5C 50.4342,64.0511 53.6009,68.7178 56.5,73.5C 52.5395,69.6028 49.0395,65.2695 46,60.5C 43.9442,57.0559 42.4442,53.3892 41.5,49.5C 43.2801,43.4406 47.2801,41.274 53.5,43C 54.9423,43.3768 55.9423,44.2101 56.5,45.5 Z"/></g>
<g><path style="opacity:1" fill="#dcf2ec" d="M 24.5,64.5 C 29.032,64.0692 33.3654,64.5692 37.5,66C 33.3537,67.5951 29.0204,67.9284 24.5,67C 23.4019,66.2303 23.4019,65.397 24.5,64.5 Z"/></g>
<g><path style="opacity:1" fill="#098280" d="M 10.5,60.5 C 12.8333,60.5 15.1667,60.5 17.5,60.5C 17.3336,69.1731 17.5002,77.8397 18,86.5C 18.9947,87.0659 19.828,87.7326 20.5,88.5C 20.5,88.8333 20.5,89.1667 20.5,89.5C 18.2475,89.0844 16.7475,87.751 16,85.5C 15.5026,82.854 15.3359,80.1873 15.5,77.5C 13.5853,77.7845 11.9187,77.4511 10.5,76.5C 12.5,76.5 14.5,76.5 16.5,76.5C 16.5,73.1667 16.5,69.8333 16.5,66.5C 14.1667,66.5 11.8333,66.5 9.5,66.5C 11.2646,65.5386 13.2646,65.2053 15.5,65.5C 15.5,64.1667 15.5,62.8333 15.5,61.5C 13.5853,61.7845 11.9187,61.4511 10.5,60.5 Z"/></g>
<g><path style="opacity:1" fill="#3b8592" d="M 9.5,66.5 C 11.8333,66.5 14.1667,66.5 16.5,66.5C 16.5,69.8333 16.5,73.1667 16.5,76.5C 14.5,76.5 12.5,76.5 10.5,76.5C 5.55227,75.0701 4.38561,72.0701 7,67.5C 7.67076,66.7476 8.5041,66.4142 9.5,66.5 Z"/></g>
<g><path style="opacity:1" fill="#fbfcfd" d="M 9.5,67.5 C 11.5,67.5 13.5,67.5 15.5,67.5C 15.5,70.1667 15.5,72.8333 15.5,75.5C 8.25067,76.2827 6.25067,73.616 9.5,67.5 Z"/></g>
<g><path style="opacity:1" fill="#0bd29b" d="M 65.5,51.5 C 65.3284,52.4916 65.6618,53.1583 66.5,53.5C 66.5,54.1667 66.5,54.8333 66.5,55.5C 65.5,54.8333 64.5,54.1667 63.5,53.5C 61.9059,50.2358 59.5725,47.5691 56.5,45.5C 55.9423,44.2101 54.9423,43.3768 53.5,43C 47.2801,41.274 43.2801,43.4406 41.5,49.5C 42.4442,53.3892 43.9442,57.0559 46,60.5C 49.0395,65.2695 52.5395,69.6028 56.5,73.5C 59.1685,78.417 60.1685,83.7504 59.5,89.5C 58.8333,89.5 58.1667,89.5 57.5,89.5C 57.5,89.1667 57.5,88.8333 57.5,88.5C 57.665,85.1501 57.4983,81.8168 57,78.5C 50.0704,70.3102 44.4037,61.3102 40,51.5C 40.209,42.9405 44.709,39.4405 53.5,41C 58.3113,43.6492 62.3113,47.1492 65.5,51.5 Z"/></g>
<g><path style="opacity:1" fill="#2d7789" d="M 56.5,45.5 C 59.5725,47.5691 61.9059,50.2358 63.5,53.5C 60.4275,51.4309 58.0941,48.7642 56.5,45.5 Z"/></g>
<g><path style="opacity:1" fill="#12707e" d="M 20.5,88.5 C 32.8333,88.5 45.1667,88.5 57.5,88.5C 57.5,88.8333 57.5,89.1667 57.5,89.5C 52.3814,88.8969 47.7147,89.5636 43.5,91.5C 43.1667,91.5 42.8333,91.5 42.5,91.5C 35.1667,90.8333 27.8333,90.1667 20.5,89.5C 20.5,89.1667 20.5,88.8333 20.5,88.5 Z"/></g>
<g><path style="opacity:1" fill="#3a798f" d="M 56.5,73.5 C 59.1567,75.466 60.8233,78.1327 61.5,81.5C 59.1016,91.3602 61.7682,99.5268 69.5,106C 68.8333,106.667 68.1667,106.667 67.5,106C 62.2834,101.734 59.6167,96.2335 59.5,89.5C 60.1685,83.7504 59.1685,78.417 56.5,73.5 Z"/></g>
<g><path style="opacity:1" fill="#40a69f" d="M 42.5,91.5 C 42.8333,91.5 43.1667,91.5 43.5,91.5C 43.9124,97.8246 46.579,102.991 51.5,107C 65.1626,107.5 78.8293,107.667 92.5,107.5C 92.8333,107.5 93.1667,107.5 93.5,107.5C 79.3393,108.661 65.0059,108.827 50.5,108C 44.6584,103.823 41.9918,98.3229 42.5,91.5 Z"/></g>
</svg>
