<?xml version="1.0" encoding="UTF-8"?>
<!DOCTYPE svg PUBLIC "-//W3C//DTD SVG 1.1//EN" "http://www.w3.org/Graphics/SVG/1.1/DTD/svg11.dtd">
<svg xmlns="http://www.w3.org/2000/svg" version="1.1" width="70px" height="71px" style="shape-rendering:geometricPrecision; text-rendering:geometricPrecision; image-rendering:optimizeQuality; fill-rule:evenodd; clip-rule:evenodd" xmlns:xlink="http://www.w3.org/1999/xlink">
<g><path style="opacity:1" fill="#ebf0f3" d="M 59.5,19.5 C 60.1266,24.1408 60.4599,28.8075 60.5,33.5C 58.8333,33.5 57.1667,33.5 55.5,33.5C 55.8064,30.6146 55.4731,27.9479 54.5,25.5C 53.4388,22.3777 52.1054,19.3777 50.5,16.5C 50.1667,14.1667 48.8333,12.8333 46.5,12.5C 46.0269,11.0937 45.0269,10.427 43.5,10.5C 36.0399,6.08865 29.0399,6.75531 22.5,12.5C 20.1667,12.8333 18.8333,14.1667 18.5,16.5C 16.8639,17.7489 15.6972,19.4156 15,21.5C 13.8436,25.4183 13.3436,29.4183 13.5,33.5C 11.8333,33.5 10.1667,33.5 8.5,33.5C 8.5,30.8333 8.5,28.1667 8.5,25.5C 9.88694,13.9377 16.2203,6.43769 27.5,3C 42.5465,0.35462 53.2132,5.85462 59.5,19.5 Z"/></g>
<g><path style="opacity:1" fill="#3e7b93" d="M 43.5,10.5 C 36.2148,8.68986 29.2148,9.35653 22.5,12.5C 29.0399,6.75531 36.0399,6.08865 43.5,10.5 Z"/></g>
<g><path style="opacity:1" fill="#2b6e89" d="M 43.5,10.5 C 45.0269,10.427 46.0269,11.0937 46.5,12.5C 44.9731,12.573 43.9731,11.9063 43.5,10.5 Z"/></g>
<g><path style="opacity:1" fill="#437d95" d="M 46.5,12.5 C 48.8333,12.8333 50.1667,14.1667 50.5,16.5C 48.8333,15.5 47.5,14.1667 46.5,12.5 Z"/></g>
<g><path style="opacity:1" fill="#52889e" d="M 22.5,12.5 C 21.5,14.1667 20.1667,15.5 18.5,16.5C 18.8333,14.1667 20.1667,12.8333 22.5,12.5 Z"/></g>
<g><path style="opacity:1" fill="#0a8584" d="M 37.5,25.5 C 35.5,25.5 33.5,25.5 31.5,25.5C 31.5,28.5 31.5,31.5 31.5,34.5C 28.5,34.5 25.5,34.5 22.5,34.5C 24.9479,33.5269 27.6146,33.1936 30.5,33.5C 30.5,30.5 30.5,27.5 30.5,24.5C 33.0593,24.1984 35.3926,24.5318 37.5,25.5 Z"/></g>
<g><path style="opacity:1" fill="#0ad99f" d="M 37.5,25.5 C 37.5,28.5 37.5,31.5 37.5,34.5C 40.5,34.5 43.5,34.5 46.5,34.5C 46.5,36.5 46.5,38.5 46.5,40.5C 43.5,40.5 40.5,40.5 37.5,40.5C 37.5,43.8333 37.5,47.1667 37.5,50.5C 35.1667,50.5 32.8333,50.5 30.5,50.5C 30.5,47.5 30.5,44.5 30.5,41.5C 28.0521,40.5269 25.3854,40.1936 22.5,40.5C 22.5,38.5 22.5,36.5 22.5,34.5C 25.5,34.5 28.5,34.5 31.5,34.5C 31.5,31.5 31.5,28.5 31.5,25.5C 33.5,25.5 35.5,25.5 37.5,25.5 Z"/></g>
<g><path style="opacity:1" fill="#408188" d="M 59.5,19.5 C 61.2377,24.2169 61.9044,29.2169 61.5,34.5C 59.5,34.5 57.5,34.5 55.5,34.5C 55.5,41.5 55.5,48.5 55.5,55.5C 54.506,45.6806 54.1726,35.6806 54.5,25.5C 55.4731,27.9479 55.8064,30.6146 55.5,33.5C 57.1667,33.5 58.8333,33.5 60.5,33.5C 60.4599,28.8075 60.1266,24.1408 59.5,19.5 Z"/></g>
<g><path style="opacity:1" fill="#5e90a5" d="M 18.5,16.5 C 15.7561,21.8104 14.4227,27.4771 14.5,33.5C 14.1667,33.5 13.8333,33.5 13.5,33.5C 13.3436,29.4183 13.8436,25.4183 15,21.5C 15.6972,19.4156 16.8639,17.7489 18.5,16.5 Z"/></g>
<g><path style="opacity:0.267" fill="#06717d" d="M 37.5,25.5 C 38.4731,27.9479 38.8064,30.6146 38.5,33.5C 41.3854,33.1936 44.0521,33.5269 46.5,34.5C 43.5,34.5 40.5,34.5 37.5,34.5C 37.5,31.5 37.5,28.5 37.5,25.5 Z"/></g>
<g><path style="opacity:1" fill="#20d6a0" d="M 7.5,34.5 C 9.5,34.5 11.5,34.5 13.5,34.5C 13.5,41.5 13.5,48.5 13.5,55.5C 11.8233,58.7772 9.48995,59.2772 6.5,57C -1.79472,48.9895 -1.46139,41.4895 7.5,34.5 Z"/></g>
<g><path style="opacity:1" fill="#257879" d="M 8.5,25.5 C 8.5,28.1667 8.5,30.8333 8.5,33.5C 10.1667,33.5 11.8333,33.5 13.5,33.5C 13.8333,33.5 14.1667,33.5 14.5,33.5C 14.825,41.0191 14.4916,48.3524 13.5,55.5C 13.5,48.5 13.5,41.5 13.5,34.5C 11.5,34.5 9.5,34.5 7.5,34.5C 7.19,31.2869 7.52333,28.2869 8.5,25.5 Z"/></g>
<g><path style="opacity:1" fill="#35d6a3" d="M 61.5,34.5 C 68.4481,39.5162 69.9481,45.8495 66,53.5C 63.8699,56.23 61.2032,58.23 58,59.5C 56.8773,62.2487 55.3773,64.7487 53.5,67C 49.5138,67.4988 45.5138,67.6655 41.5,67.5C 41.5,66.8333 41.5,66.1667 41.5,65.5C 49.2197,67.6023 54.2197,64.9356 56.5,57.5C 56.1373,56.8165 55.8039,56.1499 55.5,55.5C 55.5,48.5 55.5,41.5 55.5,34.5C 57.5,34.5 59.5,34.5 61.5,34.5 Z"/></g>
<g><path style="opacity:1" fill="#baf5e3" d="M 7.5,37.5 C 8.77725,38.6936 9.44392,40.3603 9.5,42.5C 9.16667,44.1667 8.83333,45.8333 8.5,47.5C 7.51298,44.2317 7.17964,40.8984 7.5,37.5 Z"/></g>
<g><path style="opacity:1" fill="#08ad90" d="M 22.5,34.5 C 22.5,36.5 22.5,38.5 22.5,40.5C 25.3854,40.1936 28.0521,40.5269 30.5,41.5C 27.5,41.5 24.5,41.5 21.5,41.5C 21.1984,38.9407 21.5318,36.6074 22.5,34.5 Z"/></g>
<g><path style="opacity:1" fill="#0a9c8b" d="M 46.5,34.5 C 47.4682,36.6074 47.8016,38.9407 47.5,41.5C 44.5,41.5 41.5,41.5 38.5,41.5C 38.81,44.7131 38.4767,47.7131 37.5,50.5C 37.5,47.1667 37.5,43.8333 37.5,40.5C 40.5,40.5 43.5,40.5 46.5,40.5C 46.5,38.5 46.5,36.5 46.5,34.5 Z"/></g>
<g><path style="opacity:1" fill="#44d1a3" d="M 41.5,65.5 C 41.5,66.1667 41.5,66.8333 41.5,67.5C 41.0825,68.2216 40.4158,68.7216 39.5,69C 36.1667,69.6667 32.8333,69.6667 29.5,69C 27.1744,63.8589 28.8411,61.6922 34.5,62.5C 37.6111,62.0118 39.9444,63.0118 41.5,65.5 Z"/></g>
</svg>
