<?xml version="1.0" encoding="UTF-8"?>
<!DOCTYPE svg PUBLIC "-//W3C//DTD SVG 1.1//EN" "http://www.w3.org/Graphics/SVG/1.1/DTD/svg11.dtd">
<svg xmlns="http://www.w3.org/2000/svg" version="1.1" width="112px" height="114px" style="shape-rendering:geometricPrecision; text-rendering:geometricPrecision; image-rendering:optimizeQuality; fill-rule:evenodd; clip-rule:evenodd" xmlns:xlink="http://www.w3.org/1999/xlink">
<g><path style="opacity:1" fill="#fbfcfd" d="M 61.5,86.5 C 60.5592,88.0495 59.8925,89.7162 59.5,91.5C 58.6364,92.6883 57.6364,93.8549 56.5,95C 55.5509,95.6172 54.7175,95.4506 54,94.5C 48.04,80.2401 39.3733,67.9067 28,57.5C 16.9475,35.1988 22.4475,18.3655 44.5,7C 66.4548,2.3849 80.9548,10.5516 88,31.5C 88.9882,38.6679 88.3216,45.6679 86,52.5C 77.2273,63.4327 69.0606,74.7661 61.5,86.5 Z"/></g>
<g><path style="opacity:1" fill="#2b818a" d="M 67.5,80.5 C 65.684,82.1184 64.3507,84.1184 63.5,86.5C 62.8333,86.5 62.1667,86.5 61.5,86.5C 69.0606,74.7661 77.2273,63.4327 86,52.5C 88.3216,45.6679 88.9882,38.6679 88,31.5C 80.9548,10.5516 66.4548,2.3849 44.5,7C 22.4475,18.3655 16.9475,35.1988 28,57.5C 39.3733,67.9067 48.04,80.2401 54,94.5C 54.7175,95.4506 55.5509,95.6172 56.5,95C 57.6364,93.8549 58.6364,92.6883 59.5,91.5C 59.6085,93.5138 58.9418,95.1805 57.5,96.5C 55.7085,96.634 54.0418,96.3007 52.5,95.5C 52.3404,93.847 51.6737,92.5137 50.5,91.5C 50.5,91.1667 50.5,90.8333 50.5,90.5C 49.7368,88.6316 48.7368,86.9649 47.5,85.5C 47.1667,85.5 46.8333,85.5 46.5,85.5C 46.1594,82.4842 44.9927,79.8175 43,77.5C 37.7084,70.5396 32.0417,63.8729 26,57.5C 16.7363,38.4793 20.2363,22.3126 36.5,9C 55.5699,-0.52041 71.7365,2.97959 85,19.5C 91.4999,30.8325 92.1666,42.4992 87,54.5C 80.2477,63.0175 73.7477,71.6842 67.5,80.5 Z"/></g>
<g><path style="opacity:1" fill="#23657b" d="M 49.5,21.5 C 53.8333,21.5 58.1667,21.5 62.5,21.5C 62.5,26.1667 62.5,30.8333 62.5,35.5C 67.1667,35.5 71.8333,35.5 76.5,35.5C 76.5,39.8333 76.5,44.1667 76.5,48.5C 71.8333,48.5 67.1667,48.5 62.5,48.5C 62.5,53.1667 62.5,57.8333 62.5,62.5C 58.1667,62.5 53.8333,62.5 49.5,62.5C 49.5,57.8333 49.5,53.1667 49.5,48.5C 44.8333,48.5 40.1667,48.5 35.5,48.5C 35.5,44.1667 35.5,39.8333 35.5,35.5C 40.1667,35.5 44.8333,35.5 49.5,35.5C 49.5,30.8333 49.5,26.1667 49.5,21.5 Z"/></g>
<g><path style="opacity:1" fill="#8c8d31" d="M 74.5,36.5 C 75.4816,39.9619 75.815,43.6286 75.5,47.5C 70.8333,47.5 66.1667,47.5 61.5,47.5C 65.6344,46.5151 69.9677,46.1818 74.5,46.5C 74.5,43.1667 74.5,39.8333 74.5,36.5 Z"/></g>
<g><path style="opacity:1" fill="#ebb506" d="M 74.5,36.5 C 74.5,39.8333 74.5,43.1667 74.5,46.5C 69.9677,46.1818 65.6344,46.5151 61.5,47.5C 60.5151,51.6344 60.1818,55.9677 60.5,60.5C 57.1667,60.5 53.8333,60.5 50.5,60.5C 50.5,56.1667 50.5,51.8333 50.5,47.5C 45.8333,47.5 41.1667,47.5 36.5,47.5C 36.5,43.8333 36.5,40.1667 36.5,36.5C 41.1667,36.5 45.8333,36.5 50.5,36.5C 50.5,31.8333 50.5,27.1667 50.5,22.5C 54.1667,22.5 57.8333,22.5 61.5,22.5C 61.5,27.1667 61.5,31.8333 61.5,36.5C 65.8333,36.5 70.1667,36.5 74.5,36.5 Z"/></g>
<g><path style="opacity:1" fill="#848a35" d="M 61.5,47.5 C 61.5,52.1667 61.5,56.8333 61.5,61.5C 57.6286,61.815 53.9619,61.4816 50.5,60.5C 53.8333,60.5 57.1667,60.5 60.5,60.5C 60.1818,55.9677 60.5151,51.6344 61.5,47.5 Z"/></g>
<g><path style="opacity:0.227" fill="#2fcb8f" d="M 67.5,80.5 C 69.4147,80.2155 71.0813,80.5489 72.5,81.5C 70.901,81.2322 69.5676,81.5655 68.5,82.5C 66.9263,83.9842 65.593,85.6508 64.5,87.5C 64.5,86.8333 64.1667,86.5 63.5,86.5C 64.3507,84.1184 65.684,82.1184 67.5,80.5 Z"/></g>
<g><path style="opacity:1" fill="#267a77" d="M 44.5,82.5 C 33.5221,82.5207 22.8555,84.354 12.5,88C 2.76085,91.2485 2.09418,95.5819 10.5,101C 24.7279,105.946 39.3945,108.112 54.5,107.5C 69.4655,107.893 84.1322,106.06 98.5,102C 109.99,97.91 110.323,93.2434 99.5,88C 89.417,84.7289 79.0837,82.8956 68.5,82.5C 69.5676,81.5655 70.901,81.2322 72.5,81.5C 81.4043,81.5952 90.0709,83.0952 98.5,86C 102.274,87.3019 105.441,89.4686 108,92.5C 108.806,97.0598 106.973,100.226 102.5,102C 75.8927,110.29 48.8927,111.623 21.5,106C 15.8677,104.789 10.5343,102.789 5.5,100C 1.38311,93.8496 3.04977,89.5163 10.5,87C 20.3951,83.6004 30.5617,81.4338 41,80.5C 42.6991,80.3866 43.8658,81.0532 44.5,82.5 Z M 52.5,95.5 C 54.0418,96.3007 55.7085,96.634 57.5,96.5C 58.1667,96.5 58.5,96.8333 58.5,97.5C 56.358,98.4629 54.358,98.1296 52.5,96.5C 52.5,96.1667 52.5,95.8333 52.5,95.5 Z"/></g>
<g><path style="opacity:1" fill="#edb70a" d="M 44.5,82.5 C 44.9321,83.7095 45.5987,84.7095 46.5,85.5C 46.5,85.8333 46.5,86.1667 46.5,86.5C 47.2632,88.3684 48.2632,90.0351 49.5,91.5C 49.7497,93.674 50.7497,95.3406 52.5,96.5C 54.358,98.1296 56.358,98.4629 58.5,97.5C 60.2503,96.3406 61.2503,94.674 61.5,92.5C 62.3382,92.1583 62.6716,91.4916 62.5,90.5C 63.4013,89.7095 64.0679,88.7095 64.5,87.5C 65.593,85.6508 66.9263,83.9842 68.5,82.5C 79.0837,82.8956 89.417,84.7289 99.5,88C 110.323,93.2434 109.99,97.91 98.5,102C 84.1322,106.06 69.4655,107.893 54.5,107.5C 39.3945,108.112 24.7279,105.946 10.5,101C 2.09418,95.5819 2.76085,91.2485 12.5,88C 22.8555,84.354 33.5221,82.5207 44.5,82.5 Z M 52.5,95.5 C 54.0418,96.3007 55.7085,96.634 57.5,96.5C 58.1667,96.5 58.5,96.8333 58.5,97.5C 56.358,98.4629 54.358,98.1296 52.5,96.5C 52.5,96.1667 52.5,95.8333 52.5,95.5 Z"/></g>
<g><path style="opacity:1" fill="#fef4d9" d="M 76.5,100.5 C 78.288,100.215 79.9547,100.548 81.5,101.5C 80.3315,103.217 78.6648,103.884 76.5,103.5C 76.5,102.5 76.5,101.5 76.5,100.5 Z"/></g>
<g><path style="opacity:1" fill="#fefaee" d="M 88.5,88.5 C 92.7571,88.7838 95.7571,90.7838 97.5,94.5C 95.3971,99.0636 91.7305,101.397 86.5,101.5C 85.8333,101.167 85.1667,100.833 84.5,100.5C 88.6313,99.2435 92.298,97.2435 95.5,94.5C 93.9969,92.5784 91.9969,91.4117 89.5,91C 88.7476,90.3292 88.4142,89.4959 88.5,88.5 Z"/></g>
<g><path style="opacity:0.188" fill="#1ed596" d="M 49.5,91.5 C 49.8333,91.5 50.1667,91.5 50.5,91.5C 51.6737,92.5137 52.3404,93.847 52.5,95.5C 52.5,95.8333 52.5,96.1667 52.5,96.5C 50.7497,95.3406 49.7497,93.674 49.5,91.5 Z"/></g>
<g><path style="opacity:0.182" fill="#31d591" d="M 47.5,85.5 C 48.7368,86.9649 49.7368,88.6316 50.5,90.5C 49.8333,90.5 49.5,90.8333 49.5,91.5C 48.2632,90.0351 47.2632,88.3684 46.5,86.5C 47.1667,86.5 47.5,86.1667 47.5,85.5 Z"/></g>
<g><path style="opacity:1" fill="#fef8e7" d="M 24.5,87.5 C 26.9424,87.3537 27.6091,88.187 26.5,90C 22.619,90.6072 19.2856,92.2738 16.5,95C 18.6572,96.9121 20.9906,98.5787 23.5,100C 20.5808,100.552 17.9141,99.8849 15.5,98C 14.4238,96.2739 14.2571,94.4406 15,92.5C 17.9951,90.3475 21.1618,88.6808 24.5,87.5 Z"/></g>
<g><path style="opacity:0.941" fill="#2ca78c" d="M 61.5,86.5 C 62.1667,86.5 62.8333,86.5 63.5,86.5C 64.1667,86.5 64.5,86.8333 64.5,87.5C 64.0679,88.7095 63.4013,89.7095 62.5,90.5C 62.6716,91.4916 62.3382,92.1583 61.5,92.5C 61.2503,94.674 60.2503,96.3406 58.5,97.5C 58.5,96.8333 58.1667,96.5 57.5,96.5C 58.9418,95.1805 59.6085,93.5138 59.5,91.5C 59.8925,89.7162 60.5592,88.0495 61.5,86.5 Z"/></g>
<g><path style="opacity:1" fill="#fefcf5" d="M 30.5,86.5 C 32.288,86.2148 33.9547,86.5481 35.5,87.5C 34.6667,87.8333 33.8333,88.1667 33,88.5C 31.6244,88.3158 30.7911,87.6491 30.5,86.5 Z"/></g>
<g><path style="opacity:0.004" fill="#09c697" d="M 104.5,104.5 C 105.833,105.167 105.833,105.167 104.5,104.5 Z"/></g>
</svg>
