<?xml version="1.0" encoding="UTF-8"?>
<!DOCTYPE svg PUBLIC "-//W3C//DTD SVG 1.1//EN" "http://www.w3.org/Graphics/SVG/1.1/DTD/svg11.dtd">
<svg xmlns="http://www.w3.org/2000/svg" version="1.1" width="236px" height="214px" style="shape-rendering:geometricPrecision; text-rendering:geometricPrecision; image-rendering:optimizeQuality; fill-rule:evenodd; clip-rule:evenodd" xmlns:xlink="http://www.w3.org/1999/xlink">
<g><path style="opacity:1" fill="#24a87f" d="M 128.5,45.5 C 129.265,48.6702 130.265,51.6702 131.5,54.5C 133.82,64.9689 138.153,74.4689 144.5,83C 134.199,78.2065 126.199,70.7065 120.5,60.5C 119.325,56.8174 117.659,53.4841 115.5,50.5C 114.299,45.3538 112.965,40.3538 111.5,35.5C 110.734,26.5211 110.401,17.5211 110.5,8.5C 110.351,7.44802 110.517,6.44802 111,5.5C 115.773,5.33799 120.606,5.67133 125.5,6.5C 125.893,19.5503 126.893,32.5503 128.5,45.5 Z"/></g>
<g><path style="opacity:1" fill="#f6c023" d="M 110.5,8.5 C 110.401,17.5211 110.734,26.5211 111.5,35.5C 108.967,42.8995 105.633,49.8995 101.5,56.5C 99.1667,57.8333 96.8333,59.1667 94.5,60.5C 92.9731,60.427 91.9731,61.0937 91.5,62.5C 91.1583,63.3382 90.4916,63.6716 89.5,63.5C 87.9731,63.427 86.9731,64.0937 86.5,65.5C 80.9182,68.4109 75.5849,71.7442 70.5,75.5C 70.5,74.8333 70.5,74.1667 70.5,73.5C 87.6482,54.208 100.982,32.5414 110.5,8.5 Z"/></g>
<g><path style="opacity:1" fill="#306884" d="M 134.5,24.5 C 141.369,24.5377 143.869,27.871 142,34.5C 141.5,35.6667 140.667,36.5 139.5,37C 133.668,39.0386 130.335,37.0386 129.5,31C 130.283,28.0622 131.95,25.8955 134.5,24.5 Z"/></g>
<g><path style="opacity:1" fill="#f9c231" d="M 73.5,25.5 C 80.8261,24.3208 85.1594,27.3208 86.5,34.5C 85.7361,40.0986 82.5694,43.0986 77,43.5C 70.0209,41.8822 67.3543,37.5489 69,30.5C 70.0591,28.3408 71.5591,26.6741 73.5,25.5 Z"/></g>
<g><path style="opacity:1" fill="#2f6984" d="M 131.5,54.5 C 130.265,51.6702 129.265,48.6702 128.5,45.5C 139.523,41.6617 150.856,39.8283 162.5,40C 161.167,41.6667 159.833,43.3333 158.5,45C 148.943,46.685 139.943,49.8516 131.5,54.5 Z"/></g>
<g><path style="opacity:1" fill="#1b5b77" d="M 115.5,50.5 C 117.659,53.4841 119.325,56.8174 120.5,60.5C 109.321,67.0103 98.9877,74.6769 89.5,83.5C 79.985,83.8269 70.6517,83.4936 61.5,82.5C 61.8333,81.5 62.5,80.8333 63.5,80.5C 66.117,79.2141 68.4504,77.5475 70.5,75.5C 75.5849,71.7442 80.9182,68.4109 86.5,65.5C 88.0269,65.573 89.0269,64.9063 89.5,63.5C 90.4916,63.6716 91.1583,63.3382 91.5,62.5C 93.0269,62.573 94.0269,61.9063 94.5,60.5C 96.8333,59.1667 99.1667,57.8333 101.5,56.5C 106.171,54.4974 110.838,52.4974 115.5,50.5 Z"/></g>
<g><path style="opacity:1" fill="#727236" d="M 94.5,60.5 C 94.0269,61.9063 93.0269,62.573 91.5,62.5C 91.9731,61.0937 92.9731,60.427 94.5,60.5 Z"/></g>
<g><path style="opacity:1" fill="#68703f" d="M 89.5,63.5 C 89.0269,64.9063 88.0269,65.573 86.5,65.5C 86.9731,64.0937 87.9731,63.427 89.5,63.5 Z"/></g>
<g><path style="opacity:1" fill="#2fae87" d="M 113.5,70.5 C 121.486,69.998 123.486,73.1647 119.5,80C 111.424,80.8047 109.424,77.638 113.5,70.5 Z"/></g>
<g><path style="opacity:1" fill="#d7ba55" d="M 70.5,73.5 C 70.5,74.1667 70.5,74.8333 70.5,75.5C 68.4504,77.5475 66.117,79.2141 63.5,80.5C 65.5,77.8333 67.8333,75.5 70.5,73.5 Z"/></g>
<g><path style="opacity:0.667" fill="#e2ebef" d="M 204.5,80.5 C 208.019,79.1923 211.685,79.1923 215.5,80.5C 215.376,81.1067 215.043,81.44 214.5,81.5C 211.375,80.5206 208.042,80.1872 204.5,80.5 Z"/></g>
<g><path style="opacity:1" fill="#2e6984" d="M 204.5,80.5 C 208.042,80.1872 211.375,80.5206 214.5,81.5C 210.219,86.1841 204.885,87.6841 198.5,86C 200.37,83.9604 202.37,82.1271 204.5,80.5 Z"/></g>
<g><path style="opacity:1" fill="#a8b9a0" d="M 61.5,82.5 C 70.6517,83.4936 79.985,83.8269 89.5,83.5C 79.6753,84.6583 69.6753,84.8249 59.5,84C 60.0442,83.2828 60.7109,82.7828 61.5,82.5 Z"/></g>
<g><path style="opacity:1" fill="#48829a" d="M 183.5,88.5 C 172.752,88.1909 162.085,88.5242 151.5,89.5C 156.456,88.1718 161.789,87.5051 167.5,87.5C 173.011,87.5006 178.344,87.8339 183.5,88.5 Z"/></g>
<g><path style="opacity:1" fill="#1e5f7c" d="M 53.5,118.5 C 50.3157,120.414 46.649,121.08 42.5,120.5C 41.9332,118.97 41.2666,117.47 40.5,116C 34.8041,115.17 29.1375,115.337 23.5,116.5C 22.4793,117.901 21.4793,119.235 20.5,120.5C 16.6286,120.815 12.9619,120.482 9.5,119.5C 15.9069,109.025 22.5735,98.6916 29.5,88.5C 34.1889,86.712 38.3556,87.3787 42,90.5C 46.1223,99.7407 49.9557,109.074 53.5,118.5 Z M 35.5,103.5 C 34.1667,104.833 32.8333,104.833 31.5,103.5C 33.1093,99.8316 34.4426,99.8316 35.5,103.5 Z"/></g>
<g><path style="opacity:1" fill="#1b5d7b" d="M 95.5,88.5 C 99.5,88.5 103.5,88.5 107.5,88.5C 107.5,90.1667 107.5,91.8333 107.5,93.5C 106.812,101.182 106.312,108.848 106,116.5C 112,107.167 118,97.8333 124,88.5C 125.738,87.8729 127.571,87.5396 129.5,87.5C 132.011,87.288 134.178,87.9546 136,89.5C 140,98.8333 144,108.167 148,117.5C 148.913,108.111 150.08,98.778 151.5,89.5C 162.085,88.5242 172.752,88.1909 183.5,88.5C 187.094,90.7018 188.428,94.0352 187.5,98.5C 187.119,103.262 185.119,107.262 181.5,110.5C 174.254,111.464 166.92,111.797 159.5,111.5C 159.483,113.565 159.15,115.565 158.5,117.5C 157.596,118.209 157.263,119.209 157.5,120.5C 150.833,120.5 144.167,120.5 137.5,120.5C 136.661,119.359 135.994,118.026 135.5,116.5C 129.863,115.337 124.196,115.17 118.5,116C 117.614,117.615 116.614,119.115 115.5,120.5C 108.833,120.5 102.167,120.5 95.5,120.5C 95.5,117.833 95.5,115.167 95.5,112.5C 95.6633,110.143 95.4966,107.81 95,105.5C 91.1932,110.941 87.0265,116.108 82.5,121C 80.5,121.667 78.5,121.667 76.5,121C 73.207,115.582 70.0403,110.082 67,104.5C 66.5355,108.848 66.0355,113.181 65.5,117.5C 64.596,118.209 64.2627,119.209 64.5,120.5C 61.5,120.5 58.5,120.5 55.5,120.5C 55.5,118.833 55.5,117.167 55.5,115.5C 55.8828,106.223 56.8828,97.0559 58.5,88C 62.8713,87.1725 67.2047,87.3391 71.5,88.5C 74.4119,94.6581 77.5785,100.658 81,106.5C 85.6973,100.312 90.5307,94.3119 95.5,88.5 Z M 176.5,97.5 C 176.5,98.5 176.5,99.5 176.5,100.5C 171.167,100.5 165.833,100.5 160.5,100.5C 160.5,99.5 160.5,98.5 160.5,97.5C 165.833,97.5 171.167,97.5 176.5,97.5 Z M 130.5,104.5 C 128.901,104.768 127.568,104.434 126.5,103.5C 128.257,100.852 129.59,101.186 130.5,104.5 Z"/></g>
<g><path style="opacity:1" fill="#6595a9" d="M 95.5,88.5 C 99.6344,87.5151 103.968,87.1818 108.5,87.5C 108.795,89.7354 108.461,91.7354 107.5,93.5C 107.5,91.8333 107.5,90.1667 107.5,88.5C 103.5,88.5 99.5,88.5 95.5,88.5 Z"/></g>
<g><path style="opacity:1" fill="#1d5e7c" d="M 221.5,118.5 C 218.316,120.414 214.649,121.08 210.5,120.5C 209.847,119.193 209.18,117.86 208.5,116.5C 202.833,115.167 197.167,115.167 191.5,116.5C 190.479,117.901 189.479,119.235 188.5,120.5C 184.629,120.815 180.962,120.482 177.5,119.5C 179.181,116.797 180.847,114.131 182.5,111.5C 185.231,109.054 187.231,106.054 188.5,102.5C 191.474,97.8509 194.474,93.1843 197.5,88.5C 202.189,86.712 206.356,87.3787 210,90.5C 214.122,99.7407 217.956,109.074 221.5,118.5 Z M 203.5,103.5 C 202.167,104.833 200.833,104.833 199.5,103.5C 201.109,99.8316 202.443,99.8316 203.5,103.5 Z"/></g>
<g><path style="opacity:1" fill="#d6e3e8" d="M 176.5,97.5 C 177.434,98.5676 177.768,99.901 177.5,101.5C 171.642,101.822 165.975,101.489 160.5,100.5C 165.833,100.5 171.167,100.5 176.5,100.5C 176.5,99.5 176.5,98.5 176.5,97.5 Z"/></g>
<g><path style="opacity:1" fill="#bdd2da" d="M 31.5,103.5 C 32.8333,104.833 34.1667,104.833 35.5,103.5C 36.0431,103.56 36.3764,103.893 36.5,104.5C 34.5,105.833 32.5,105.833 30.5,104.5C 30.6236,103.893 30.9569,103.56 31.5,103.5 Z"/></g>
<g><path style="opacity:1" fill="#bfd3db" d="M 126.5,103.5 C 127.568,104.434 128.901,104.768 130.5,104.5C 131.009,105.259 130.343,105.592 128.5,105.5C 127.5,105.167 126.5,104.833 125.5,104.5C 125.624,103.893 125.957,103.56 126.5,103.5 Z"/></g>
<g><path style="opacity:1" fill="#bdd1da" d="M 199.5,103.5 C 200.833,104.833 202.167,104.833 203.5,103.5C 204.043,103.56 204.376,103.893 204.5,104.5C 202.5,105.833 200.5,105.833 198.5,104.5C 198.624,103.893 198.957,103.56 199.5,103.5 Z"/></g>
<g><path style="opacity:1" fill="#a8c3ce" d="M 187.5,98.5 C 187.232,100.099 187.566,101.432 188.5,102.5C 187.231,106.054 185.231,109.054 182.5,111.5C 182.5,110.833 182.167,110.5 181.5,110.5C 185.119,107.262 187.119,103.262 187.5,98.5 Z"/></g>
<g><path style="opacity:1" fill="#90b4c1" d="M 9.5,119.5 C 12.9619,120.482 16.6286,120.815 20.5,120.5C 16.6493,121.809 12.6493,121.809 8.5,120.5C 8.62358,119.893 8.95691,119.56 9.5,119.5 Z"/></g>
<g><path style="opacity:1" fill="#8eb2c0" d="M 55.5,115.5 C 55.5,117.167 55.5,118.833 55.5,120.5C 58.5,120.5 61.5,120.5 64.5,120.5C 64.2627,119.209 64.596,118.209 65.5,117.5C 65.5,118.833 65.5,120.167 65.5,121.5C 57.6484,121.825 49.9818,121.492 42.5,120.5C 46.649,121.08 50.3157,120.414 53.5,118.5C 54.1667,117.5 54.8333,116.5 55.5,115.5 Z"/></g>
<g><path style="opacity:1" fill="#83aab9" d="M 95.5,112.5 C 95.5,115.167 95.5,117.833 95.5,120.5C 102.167,120.5 108.833,120.5 115.5,120.5C 108.687,121.491 101.687,121.825 94.5,121.5C 94.19,118.287 94.5233,115.287 95.5,112.5 Z"/></g>
<g><path style="opacity:1" fill="#85acba" d="M 158.5,117.5 C 158.5,118.833 158.5,120.167 158.5,121.5C 151.313,121.825 144.313,121.491 137.5,120.5C 144.167,120.5 150.833,120.5 157.5,120.5C 157.263,119.209 157.596,118.209 158.5,117.5 Z"/></g>
<g><path style="opacity:1" fill="#90b4c1" d="M 177.5,119.5 C 180.962,120.482 184.629,120.815 188.5,120.5C 184.649,121.809 180.649,121.809 176.5,120.5C 176.624,119.893 176.957,119.56 177.5,119.5 Z"/></g>
<g><path style="opacity:1" fill="#8cb1bf" d="M 221.5,118.5 C 222.404,119.209 222.737,120.209 222.5,121.5C 218.298,121.817 214.298,121.483 210.5,120.5C 214.649,121.08 218.316,120.414 221.5,118.5 Z"/></g>
<g><path style="opacity:1" fill="#323230" d="M 29.5,150.5 C 28.609,149.89 27.609,149.557 26.5,149.5C 18.0631,145.553 13.0631,148.22 11.5,157.5C 13.1447,166.906 18.3113,169.573 27,165.5C 27.4828,164.552 27.6495,163.552 27.5,162.5C 24.6146,162.806 21.9479,162.473 19.5,161.5C 19.5,159.833 19.5,158.167 19.5,156.5C 24.5,156.5 29.5,156.5 34.5,156.5C 36.4588,170.077 30.4588,175.911 16.5,174C 3.82456,168.995 0.324559,160.162 6,147.5C 13.6032,139.766 22.1032,138.6 31.5,144C 35.8227,147.54 35.156,149.706 29.5,150.5 Z"/></g>
<g><path style="opacity:1" fill="#333331" d="M 50.5,140.5 C 67.4017,139.991 74.2351,147.991 71,164.5C 64.8269,174.443 56.3269,176.943 45.5,172C 35.8934,163.432 35.2267,154.265 43.5,144.5C 45.7654,142.873 48.0987,141.539 50.5,140.5 Z M 51.5,147.5 C 63.5478,147.779 67.0478,153.445 62,164.5C 51.2402,170.114 45.9069,166.781 46,154.5C 46.9668,151.379 48.8001,149.046 51.5,147.5 Z"/></g>
<g><path style="opacity:1" fill="#363634" d="M 72.5,140.5 C 75.6852,140.02 78.5185,140.686 81,142.5C 83.6667,149.833 86.3333,157.167 89,164.5C 91.5934,156.376 94.76,148.542 98.5,141C 100.81,140.503 103.143,140.337 105.5,140.5C 101.973,151.246 98.1396,161.912 94,172.5C 90.6064,173.456 87.1064,173.789 83.5,173.5C 79.63,162.557 75.9633,151.557 72.5,140.5 Z"/></g>
<g><path style="opacity:1" fill="#272725" d="M 115.5,153.5 C 120.305,154.487 125.305,154.821 130.5,154.5C 130.5,156.167 130.5,157.833 130.5,159.5C 125.305,159.179 120.305,159.513 115.5,160.5C 115.5,162.833 115.5,165.167 115.5,167.5C 120.833,167.5 126.167,167.5 131.5,167.5C 131.5,169.5 131.5,171.5 131.5,173.5C 123.833,173.5 116.167,173.5 108.5,173.5C 108.5,162.5 108.5,151.5 108.5,140.5C 115.841,140.334 123.174,140.5 130.5,141C 131.423,143.041 131.756,145.208 131.5,147.5C 126.167,147.5 120.833,147.5 115.5,147.5C 115.5,149.5 115.5,151.5 115.5,153.5 Z"/></g>
<g><path style="opacity:1" fill="#2d2d2b" d="M 157.5,160.5 C 155.576,160.711 155.243,161.377 156.5,162.5C 158.489,165.806 160.489,169.139 162.5,172.5C 159.5,173.833 156.5,173.833 153.5,172.5C 152.087,169.339 150.42,166.339 148.5,163.5C 146.955,162.548 145.288,162.215 143.5,162.5C 143.5,166.167 143.5,169.833 143.5,173.5C 141.167,173.5 138.833,173.5 136.5,173.5C 136.5,162.5 136.5,151.5 136.5,140.5C 144.022,139.989 151.355,140.822 158.5,143C 162.714,147.2 163.548,152.034 161,157.5C 159.961,158.71 158.794,159.71 157.5,160.5 Z M 143.5,147.5 C 147.257,147.071 150.757,147.737 154,149.5C 154.863,151.749 154.363,153.582 152.5,155C 149.518,155.498 146.518,155.665 143.5,155.5C 143.5,152.833 143.5,150.167 143.5,147.5 Z"/></g>
<g><path style="opacity:1" fill="#31312f" d="M 187.5,159.5 C 187.783,160.289 188.283,160.956 189,161.5C 189.5,154.842 189.666,148.175 189.5,141.5C 191.56,140.189 193.726,140.189 196,141.5C 196.5,152.161 196.667,162.828 196.5,173.5C 193.813,173.664 191.146,173.497 188.5,173C 183.788,167.067 179.455,160.9 175.5,154.5C 175.217,153.711 174.717,153.044 174,152.5C 173.5,159.492 173.334,166.492 173.5,173.5C 171.167,173.5 168.833,173.5 166.5,173.5C 166.18,162.585 166.513,151.752 167.5,141C 169.833,140.333 172.167,140.333 174.5,141C 179.222,146.962 183.555,153.129 187.5,159.5 Z"/></g>
<g><path style="opacity:1" fill="#ababaa" d="M 189.5,141.5 C 189.666,148.175 189.5,154.842 189,161.5C 188.283,160.956 187.783,160.289 187.5,159.5C 188.167,153.5 188.833,147.5 189.5,141.5 Z"/></g>
<g><path style="opacity:1" fill="#353533" d="M 212.5,140.5 C 230.16,139.991 236.993,148.324 233,165.5C 225.861,175.085 217.028,176.918 206.5,171C 199.985,164.049 198.818,156.216 203,147.5C 205.825,144.524 208.992,142.191 212.5,140.5 Z M 214.5,147.5 C 223.97,147.474 227.804,152.141 226,161.5C 223.647,166.426 219.814,168.26 214.5,167C 208.975,164.081 207.142,159.581 209,153.5C 210.021,150.65 211.854,148.65 214.5,147.5 Z"/></g>
<g><path style="opacity:1" fill="#a6a6a5" d="M 26.5,149.5 C 27.609,149.557 28.609,149.89 29.5,150.5C 28.221,151.715 27.221,151.382 26.5,149.5 Z"/></g>
<g><path style="opacity:1" fill="#9e9e9d" d="M 115.5,153.5 C 120.833,153.5 126.167,153.5 131.5,153.5C 131.5,155.833 131.5,158.167 131.5,160.5C 126.167,160.5 120.833,160.5 115.5,160.5C 120.305,159.513 125.305,159.179 130.5,159.5C 130.5,157.833 130.5,156.167 130.5,154.5C 125.305,154.821 120.305,154.487 115.5,153.5 Z"/></g>
<g><path style="opacity:1" fill="#727270" d="M 175.5,154.5 C 174.833,160.833 174.167,167.167 173.5,173.5C 173.334,166.492 173.5,159.492 174,152.5C 174.717,153.044 175.217,153.711 175.5,154.5 Z"/></g>
<g><path style="opacity:1" fill="#666664" d="M 34.5,156.5 C 29.5,156.5 24.5,156.5 19.5,156.5C 19.5,158.167 19.5,159.833 19.5,161.5C 18.5386,159.735 18.2053,157.735 18.5,155.5C 24.0262,155.179 29.3595,155.512 34.5,156.5 Z"/></g>
<g><path style="opacity:1" fill="#c9c9c9" d="M 157.5,160.5 C 157.167,161.167 156.833,161.833 156.5,162.5C 155.243,161.377 155.576,160.711 157.5,160.5 Z"/></g>
<g><path style="opacity:1" fill="#c1c1c1" d="M 78.5,182.5 C 84.979,181.509 91.6457,181.176 98.5,181.5C 98.7947,183.735 98.4614,185.735 97.5,187.5C 97.5,185.833 97.5,184.167 97.5,182.5C 91.1667,182.5 84.8333,182.5 78.5,182.5 Z"/></g>
<g><path style="opacity:1" fill="#2f2f2e" d="M 7.5,181.5 C 14.8558,180.768 21.8558,181.934 28.5,185C 35.3386,193.314 34.6719,200.981 26.5,208C 20.2584,209.37 13.9251,209.87 7.5,209.5C 7.5,200.167 7.5,190.833 7.5,181.5 Z M 13.5,187.5 C 16.941,187.301 20.2744,187.801 23.5,189C 28.8036,199.535 25.4703,204.368 13.5,203.5C 13.5,198.167 13.5,192.833 13.5,187.5 Z"/></g>
<g><path style="opacity:1" fill="#353533" d="M 45.5,181.5 C 61.7119,181.54 67.2119,189.206 62,204.5C 55.0858,211.606 47.5858,212.273 39.5,206.5C 35.687,201.85 34.5203,196.516 36,190.5C 37.775,185.888 40.9417,182.888 45.5,181.5 Z M 46.5,187.5 C 55.1532,186.987 58.6532,190.987 57,199.5C 52.8292,205.729 48.1626,206.062 43,200.5C 41.0216,195.275 42.1883,190.941 46.5,187.5 Z"/></g>
<g><path style="opacity:1" fill="#2d2d2b" d="M 78.5,182.5 C 84.8333,182.5 91.1667,182.5 97.5,182.5C 97.5,184.167 97.5,185.833 97.5,187.5C 93.1667,187.5 88.8333,187.5 84.5,187.5C 84.5,189.167 84.5,190.833 84.5,192.5C 88.8333,192.5 93.1667,192.5 97.5,192.5C 97.5,194.5 97.5,196.5 97.5,198.5C 93.1667,198.5 88.8333,198.5 84.5,198.5C 84.5,200.167 84.5,201.833 84.5,203.5C 88.8461,203.334 93.1794,203.501 97.5,204C 98.4061,205.699 98.7394,207.533 98.5,209.5C 91.8333,209.5 85.1667,209.5 78.5,209.5C 78.5,200.5 78.5,191.5 78.5,182.5 Z"/></g>
<g><path style="opacity:1" fill="#383836" d="M 107.5,181.5 C 113.158,180.673 118.158,182.007 122.5,185.5C 121.826,187.517 120.659,189.183 119,190.5C 115.244,187.223 111.411,186.89 107.5,189.5C 112.395,191.531 117.229,193.864 122,196.5C 124.472,201.744 123.305,205.911 118.5,209C 113.039,211.031 107.705,210.697 102.5,208C 100.242,205.237 100.742,202.737 104,200.5C 107.898,204.825 112.065,205.325 116.5,202C 111.617,199.724 106.784,197.224 102,194.5C 99.9769,188.545 101.81,184.212 107.5,181.5 Z"/></g>
<g><path style="opacity:1" fill="#2e2e2c" d="M 124.5,181.5 C 131.833,181.5 139.167,181.5 146.5,181.5C 146.5,183.5 146.5,185.5 146.5,187.5C 143.833,187.5 141.167,187.5 138.5,187.5C 138.5,194.833 138.5,202.167 138.5,209.5C 136.5,209.5 134.5,209.5 132.5,209.5C 132.5,202.167 132.5,194.833 132.5,187.5C 129.833,187.5 127.167,187.5 124.5,187.5C 124.5,185.5 124.5,183.5 124.5,181.5 Z"/></g>
<g><path style="opacity:1" fill="#343432" d="M 154.5,181.5 C 157.448,181.223 160.281,181.556 163,182.5C 166.309,191.43 169.809,200.263 173.5,209C 170.773,209.818 168.106,209.652 165.5,208.5C 165.167,207.833 164.833,207.167 164.5,206.5C 160.555,205.509 156.555,205.176 152.5,205.5C 152.67,206.822 152.337,207.989 151.5,209C 149.098,209.814 146.765,209.647 144.5,208.5C 148.125,199.588 151.458,190.588 154.5,181.5 Z M 159.5,190.5 C 160.202,193.44 161.202,196.273 162.5,199C 160.19,199.497 157.857,199.663 155.5,199.5C 155.963,196.779 156.629,194.112 157.5,191.5C 158.167,191.167 158.833,190.833 159.5,190.5 Z"/></g>
<g><path style="opacity:1" fill="#353533" d="M 175.5,181.5 C 182.856,180.768 189.856,181.934 196.5,185C 200.284,189.861 201.451,195.361 200,201.5C 198.542,203.96 196.709,206.127 194.5,208C 187.924,209.377 181.257,209.877 174.5,209.5C 174.195,200.083 174.528,190.75 175.5,181.5 Z M 181.5,187.5 C 191.362,186.848 195.195,191.182 193,200.5C 191.729,201.883 190.229,202.883 188.5,203.5C 186.167,203.5 183.833,203.5 181.5,203.5C 181.5,198.167 181.5,192.833 181.5,187.5 Z"/></g>
<g><path style="opacity:1" fill="#363634" d="M 212.5,181.5 C 230.137,181.29 235.637,189.29 229,205.5C 221.333,212.167 213.667,212.167 206,205.5C 200.388,195.272 202.555,187.272 212.5,181.5 Z M 214.5,187.5 C 221.203,186.509 224.869,189.342 225.5,196C 223.811,203.9 219.311,206.066 212,202.5C 208.281,196.607 209.115,191.607 214.5,187.5 Z"/></g>
<g><path style="opacity:1" fill="#868685" d="M 181.5,187.5 C 181.5,192.833 181.5,198.167 181.5,203.5C 183.833,203.5 186.167,203.5 188.5,203.5C 186.052,204.473 183.385,204.806 180.5,204.5C 180.178,198.642 180.511,192.975 181.5,187.5 Z"/></g>
<g><path style="opacity:0.733" fill="#c4c4c3" d="M 159.5,190.5 C 158.833,190.833 158.167,191.167 157.5,191.5C 158.032,188.54 158.699,188.207 159.5,190.5 Z"/></g>
</svg>
