<?xml version="1.0" encoding="UTF-8"?>
<!DOCTYPE svg PUBLIC "-//W3C//DTD SVG 1.1//EN" "http://www.w3.org/Graphics/SVG/1.1/DTD/svg11.dtd">
<svg xmlns="http://www.w3.org/2000/svg" version="1.1" width="112px" height="111px" style="shape-rendering:geometricPrecision; text-rendering:geometricPrecision; image-rendering:optimizeQuality; fill-rule:evenodd; clip-rule:evenodd" xmlns:xlink="http://www.w3.org/1999/xlink">
<g><path style="opacity:0.004" fill="#0ac596" d="M 6.5,-0.5 C 6.83333,-0.5 7.16667,-0.5 7.5,-0.5C 7.31468,0.170143 6.98135,0.170143 6.5,-0.5 Z"/></g>
<g><path style="opacity:0.004" fill="#08b592" d="M 106.5,2.5 C 105.833,1.16667 105.833,1.16667 106.5,2.5 Z"/></g>
<g><path style="opacity:0.051" fill="#08b291" d="M 106.5,2.5 C 107.167,2.5 107.5,2.83333 107.5,3.5C 107.167,3.16667 106.833,2.83333 106.5,2.5 Z"/></g>
<g><path style="opacity:0.02" fill="#079b8a" d="M 107.5,3.5 C 108.833,4.16667 108.833,4.16667 107.5,3.5 Z"/></g>
<g><path style="opacity:1" fill="#f0b80c" d="M 99.5,3.5 C 102.34,4.68648 104.506,6.68648 106,9.5C 106.5,28.8305 106.667,48.1638 106.5,67.5C 72.5,67.5 38.5,67.5 4.5,67.5C 4.5,48.8333 4.5,30.1667 4.5,11.5C 5.18279,7.9802 7.18279,5.4802 10.5,4C 40.1648,3.50002 69.8315,3.33335 99.5,3.5 Z"/></g>
<g><path style="opacity:1" fill="#fdf4d9" d="M 15.5,7.5 C 18.1667,7.5 20.8333,7.5 23.5,7.5C 23.5,8.5 23.5,9.5 23.5,10.5C 20.8127,10.3359 18.146,10.5026 15.5,11C 13.3333,11.8333 11.8333,13.3333 11,15.5C 10.9797,27.6561 10.3131,39.6561 9,51.5C 7.35691,39.6565 7.02358,27.6565 8,15.5C 9.69044,11.9791 12.1904,9.31244 15.5,7.5 Z"/></g>
<g><path style="opacity:1" fill="#136677" d="M 99.5,2.5 C 99.5,2.83333 99.5,3.16667 99.5,3.5C 69.8315,3.33335 40.1648,3.50002 10.5,4C 7.18279,5.4802 5.18279,7.9802 4.5,11.5C 3.50304,30.326 3.16971,49.326 3.5,68.5C 3.16667,68.5 2.83333,68.5 2.5,68.5C 2.33338,48.8305 2.50005,29.1638 3,9.5C 4.12173,7.37623 5.62173,5.5429 7.5,4C 38.079,2.51542 68.7457,2.01542 99.5,2.5 Z"/></g>
<g><path style="opacity:1" fill="#fcf0cd" d="M 54.5,10.5 C 55.0642,16.1002 53.2309,21.1002 49,25.5C 51.3203,20.8252 53.1537,15.8252 54.5,10.5 Z"/></g>
<g><path style="opacity:1" fill="#3b8170" d="M 99.5,2.5 C 103.779,3.61222 106.613,6.27888 108,10.5C 108.829,31.3374 108.663,52.0041 107.5,72.5C 107.768,70.901 107.434,69.5676 106.5,68.5C 106.5,68.1667 106.5,67.8333 106.5,67.5C 106.667,48.1638 106.5,28.8305 106,9.5C 104.506,6.68648 102.34,4.68648 99.5,3.5C 99.5,3.16667 99.5,2.83333 99.5,2.5 Z"/></g>
<g><path style="opacity:1" fill="#fefaf0" d="M 37.5,14.5 C 39.1033,14.3118 40.4366,14.8118 41.5,16C 38.4402,21.6254 35.6068,27.1254 33,32.5C 31.0486,32.1123 29.5486,31.1123 28.5,29.5C 32.2774,24.9416 35.2774,19.9416 37.5,14.5 Z"/></g>
<g><path style="opacity:1" fill="#fcefc9" d="M 30.5,12.5 C 30.622,15.657 29.4554,18.657 27,21.5C 27.5592,18.3626 28.7259,15.3626 30.5,12.5 Z"/></g>
<g><path style="opacity:1" fill="#fefefc" d="M 99.5,18.5 C 100.829,23.7918 101.496,29.4585 101.5,35.5C 101.167,41.1667 100.833,46.8333 100.5,52.5C 99.5012,41.1862 99.1678,29.8529 99.5,18.5 Z"/></g>
<g><path style="opacity:1" fill="#fef3d6" d="M 52.5,23.5 C 53.8734,23.3433 55.2068,23.51 56.5,24C 57.4506,24.7175 57.6172,25.5509 57,26.5C 53.0539,28.3597 51.5539,27.3597 52.5,23.5 Z"/></g>
<g><path style="opacity:1" fill="#fef4da" d="M 60.5,23.5 C 70.1724,23.3335 79.8391,23.5002 89.5,24C 90.8333,25 90.8333,26 89.5,27C 79.8391,27.4998 70.1724,27.6665 60.5,27.5C 60.5,26.1667 60.5,24.8333 60.5,23.5 Z"/></g>
<g><path style="opacity:1" fill="#fefcf5" d="M 51.5,31.5 C 53.1667,31.5 54.8333,31.5 56.5,31.5C 56.5,32.5 56.5,33.5 56.5,34.5C 54.8333,34.5 53.1667,34.5 51.5,34.5C 51.5,33.5 51.5,32.5 51.5,31.5 Z"/></g>
<g><path style="opacity:1" fill="#fefdfc" d="M 60.5,31.5 C 70.1724,31.3335 79.8391,31.5002 89.5,32C 89.9574,32.414 90.2907,32.914 90.5,33.5C 80.5222,34.4985 70.5222,34.8319 60.5,34.5C 60.5,33.5 60.5,32.5 60.5,31.5 Z"/></g>
<g><path style="opacity:1" fill="#fcf1cf" d="M 46.5,44.5 C 41.4121,41.9499 39.2454,37.9499 40,32.5C 41.4216,30.3619 43.255,29.1953 45.5,29C 43.2256,30.7651 41.5589,32.9318 40.5,35.5C 42.5164,38.5113 44.5164,41.5113 46.5,44.5 Z"/></g>
<g><path style="opacity:1" fill="#fefbf2" d="M 25.5,33.5 C 30.001,34.765 30.3343,36.4317 26.5,38.5C 25.5481,36.9547 25.2148,35.288 25.5,33.5 Z"/></g>
<g><path style="opacity:1" fill="#fcedc4" d="M 25.5,44.5 C 19.795,39.7405 18.9616,34.0739 23,27.5C 23.0009,30.5178 22.5009,33.5178 21.5,36.5C 22.4476,39.4227 23.7809,42.0893 25.5,44.5 Z"/></g>
<g><path style="opacity:1" fill="#fefbf4" d="M 31.5,39.5 C 33.5,39.5 35.5,39.5 37.5,39.5C 37.3398,41.1992 37.5065,42.8659 38,44.5C 40.3603,47.3603 42.527,50.3603 44.5,53.5C 44.1667,54.5 43.5,55.1667 42.5,55.5C 39.1743,51.3418 35.341,47.6751 31,44.5C 30.3603,42.735 30.5269,41.0683 31.5,39.5 Z"/></g>
<g><path style="opacity:1" fill="#fefbf1" d="M 51.5,39.5 C 59.5,40.5 59.5,41.5 51.5,42.5C 51.5,41.5 51.5,40.5 51.5,39.5 Z"/></g>
<g><path style="opacity:1" fill="#fefefd" d="M 60.5,39.5 C 70.5222,39.1681 80.5222,39.5015 90.5,40.5C 90.2907,41.086 89.9574,41.586 89.5,42C 79.8391,42.4998 70.1724,42.6665 60.5,42.5C 60.5,41.5 60.5,40.5 60.5,39.5 Z"/></g>
<g><path style="opacity:1" fill="#fcefc8" d="M 46.5,44.5 C 48.9137,45.4056 49.747,47.0722 49,49.5C 47.9055,47.9221 47.0722,46.2554 46.5,44.5 Z"/></g>
<g><path style="opacity:1" fill="#fcefc9" d="M 25.5,44.5 C 27.5869,45.5846 28.9202,47.2512 29.5,49.5C 27.4131,48.4154 26.0798,46.7488 25.5,44.5 Z"/></g>
<g><path style="opacity:1" fill="#3a6d78" d="M 83.5,60.5 C 82.6109,58.264 81.2776,56.264 79.5,54.5C 80.1667,53.8333 80.8333,53.1667 81.5,52.5C 77.9273,50.6418 74.2607,48.9751 70.5,47.5C 69.7025,47.9569 69.3691,48.6236 69.5,49.5C 68.596,48.791 68.2627,47.791 68.5,46.5C 74.0302,47.3397 79.0302,49.3397 83.5,52.5C 83.0233,53.4776 82.3567,54.3109 81.5,55C 84.136,56.4098 84.8026,58.2431 83.5,60.5 Z"/></g>
<g><path style="opacity:1" fill="#eff4f6" d="M 83.5,60.5 C 81.0712,60.415 79.0712,59.415 77.5,57.5C 76.5224,57.9767 75.6891,58.6433 75,59.5C 73.2507,56.0508 71.4174,52.7174 69.5,49.5C 69.3691,48.6236 69.7025,47.9569 70.5,47.5C 74.2607,48.9751 77.9273,50.6418 81.5,52.5C 80.8333,53.1667 80.1667,53.8333 79.5,54.5C 81.2776,56.264 82.6109,58.264 83.5,60.5 Z"/></g>
<g><path style="opacity:1" fill="#fcf1d1" d="M 29.5,49.5 C 31.2624,50.2623 32.2624,51.5956 32.5,53.5C 30.7376,52.7377 29.7376,51.4044 29.5,49.5 Z"/></g>
<g><path style="opacity:1" fill="#3f727e" d="M 69.5,49.5 C 71.4174,52.7174 73.2507,56.0508 75,59.5C 75.6891,58.6433 76.5224,57.9767 77.5,57.5C 79.0712,59.415 81.0712,60.415 83.5,60.5C 83.189,61.4778 82.5223,62.1445 81.5,62.5C 80.1667,61.5 78.8333,60.5 77.5,59.5C 76.5,60.1667 75.5,60.8333 74.5,61.5C 72.0521,57.8223 70.3854,53.8223 69.5,49.5 Z"/></g>
<g><path style="opacity:1" fill="#fcecbe" d="M 50.5,51.5 C 52.5725,54.4562 53.4058,57.7896 53,61.5C 51.6476,58.2799 50.8143,54.9466 50.5,51.5 Z"/></g>
<g><path style="opacity:1" fill="#fcf0cb" d="M 32.5,53.5 C 34.5869,54.5846 35.9202,56.2512 36.5,58.5C 34.4131,57.4154 33.0798,55.7488 32.5,53.5 Z"/></g>
<g><path style="opacity:1" fill="#fdf2d5" d="M 8.5,56.5 C 10.9506,58.9162 11.1173,61.5829 9,64.5C 7.1884,61.9543 7.02173,59.2877 8.5,56.5 Z"/></g>
<g><path style="opacity:1" fill="#fefdf8" d="M 99.5,58.5 C 100.649,58.7911 101.316,59.6244 101.5,61C 101.167,61.8333 100.833,62.6667 100.5,63.5C 99.5481,61.9547 99.2148,60.288 99.5,58.5 Z"/></g>
<g><path style="opacity:1" fill="#fbeab7" d="M 36.5,58.5 C 37.6266,59.1217 38.6266,59.955 39.5,61C 37.5106,61.5192 36.5106,60.6859 36.5,58.5 Z"/></g>
<g><path style="opacity:1" fill="#b8a01f" d="M 4.5,11.5 C 4.5,30.1667 4.5,48.8333 4.5,67.5C 38.5,67.5 72.5,67.5 106.5,67.5C 106.5,67.8333 106.5,68.1667 106.5,68.5C 72.1667,68.5 37.8333,68.5 3.5,68.5C 3.16971,49.326 3.50304,30.326 4.5,11.5 Z"/></g>
<g><path style="opacity:1" fill="#0d5c78" d="M 2.5,68.5 C 2.83333,68.5 3.16667,68.5 3.5,68.5C 37.8333,68.5 72.1667,68.5 106.5,68.5C 107.434,69.5676 107.768,70.901 107.5,72.5C 106.281,77.7121 102.947,80.3788 97.5,80.5C 86.8333,80.5 76.1667,80.5 65.5,80.5C 65.1667,80.5 64.8333,80.5 64.5,80.5C 58.1667,80.5 51.8333,80.5 45.5,80.5C 34.8333,80.5 24.1667,80.5 13.5,80.5C 6.36257,79.6955 2.69591,75.6955 2.5,68.5 Z"/></g>
<g><path style="opacity:1" fill="#f9fbfc" d="M 4.5,69.5 C 38.5,69.5 72.5,69.5 106.5,69.5C 106.682,74.4885 104.349,77.6552 99.5,79C 69.8333,79.6667 40.1667,79.6667 10.5,79C 6.34503,77.1893 4.34503,74.0226 4.5,69.5 Z"/></g>
<g><path style="opacity:1" fill="#3c7690" d="M 53.5,71.5 C 58.5867,71.2845 59.5867,73.1178 56.5,77C 52.5369,77.1177 51.5369,75.2843 53.5,71.5 Z"/></g>
<g><path style="opacity:1" fill="#f6f9fa" d="M 54.5,72.5 C 56.0481,72.8212 56.7148,73.8212 56.5,75.5C 53.7524,75.5983 53.0857,74.5983 54.5,72.5 Z"/></g>
<g><path style="opacity:0.125" fill="#09bf95" d="M 65.5,80.5 C 76.1667,80.5 86.8333,80.5 97.5,80.5C 87.3468,81.4942 77.0135,81.8276 66.5,81.5C 66.5,84.8333 66.5,88.1667 66.5,91.5C 65.5184,88.0381 65.185,84.3714 65.5,80.5 Z"/></g>
<g><path style="opacity:1" fill="#2a7a88" d="M 13.5,80.5 C 24.1667,80.5 34.8333,80.5 45.5,80.5C 45.6657,84.8461 45.499,89.1794 45,93.5C 44.1667,94.3333 43.3333,95.1667 42.5,96C 50.8333,96.6667 59.1667,96.6667 67.5,96C 66.2986,95.0975 65.4652,93.9308 65,92.5C 64.5012,88.5138 64.3345,84.5138 64.5,80.5C 64.8333,80.5 65.1667,80.5 65.5,80.5C 65.185,84.3714 65.5184,88.0381 66.5,91.5C 67.6253,93.1288 68.9586,94.6288 70.5,96C 75.6141,96.1091 80.6141,96.7758 85.5,98C 87.0368,99.1096 87.7035,100.61 87.5,102.5C 87.8404,104.548 87.5071,105.548 86.5,105.5C 86.6734,101.83 85.0067,99.3296 81.5,98C 63.8333,97.3333 46.1667,97.3333 28.5,98C 25.2108,99.4103 23.5441,101.91 23.5,105.5C 44.1667,105.5 64.8333,105.5 85.5,105.5C 64.6733,106.497 43.6733,106.831 22.5,106.5C 22.0695,103.138 23.0695,100.305 25.5,98C 30.3859,96.7758 35.3859,96.1091 40.5,96C 41.3333,95.1667 42.1667,94.3333 43,93.5C 44.3537,89.6372 44.8537,85.6372 44.5,81.5C 33.9865,81.8276 23.6532,81.4942 13.5,80.5 Z"/></g>
<g><path style="opacity:1" fill="#f9fbfc" d="M 45.5,80.5 C 51.8333,80.5 58.1667,80.5 64.5,80.5C 64.3345,84.5138 64.5012,88.5138 65,92.5C 65.4652,93.9308 66.2986,95.0975 67.5,96C 59.1667,96.6667 50.8333,96.6667 42.5,96C 43.3333,95.1667 44.1667,94.3333 45,93.5C 45.499,89.1794 45.6657,84.8461 45.5,80.5 Z"/></g>
<g><path style="opacity:1" fill="#f8fafb" d="M 86.5,105.5 C 86.1667,105.5 85.8333,105.5 85.5,105.5C 64.8333,105.5 44.1667,105.5 23.5,105.5C 23.5441,101.91 25.2108,99.4103 28.5,98C 46.1667,97.3333 63.8333,97.3333 81.5,98C 85.0067,99.3296 86.6734,101.83 86.5,105.5 Z"/></g>
<g><path style="opacity:1" fill="#079388" d="M 87.5,102.5 C 88.4511,103.919 88.7845,105.585 88.5,107.5C 66.327,107.831 44.327,107.497 22.5,106.5C 43.6733,106.831 64.6733,106.497 85.5,105.5C 85.8333,105.5 86.1667,105.5 86.5,105.5C 87.5071,105.548 87.8404,104.548 87.5,102.5 Z"/></g>
</svg>
