<?xml version="1.0" encoding="UTF-8"?>
<!DOCTYPE svg PUBLIC "-//W3C//DTD SVG 1.1//EN" "http://www.w3.org/Graphics/SVG/1.1/DTD/svg11.dtd">
<svg xmlns="http://www.w3.org/2000/svg" version="1.1" width="147px" height="141px" style="shape-rendering:geometricPrecision; text-rendering:geometricPrecision; image-rendering:optimizeQuality; fill-rule:evenodd; clip-rule:evenodd" xmlns:xlink="http://www.w3.org/1999/xlink">
<g><path style="opacity:1" fill="#1d6778" d="M 113.5,4.5 C 124.142,3.97685 129.309,8.97685 129,19.5C 127.969,22.5395 126.135,25.0395 123.5,27C 111.804,31.5652 99.9709,35.7319 88,39.5C 77.6892,37.5433 74.0225,31.5433 77,21.5C 78.5,20 80,18.5 81.5,17C 92.3667,13.0559 103.033,8.88925 113.5,4.5 Z"/></g>
<g><path style="opacity:1" fill="#f8fafb" d="M 94.5,13.5 C 96.1439,13.2865 97.6439,13.6198 99,14.5C 101.149,20.445 102.983,26.445 104.5,32.5C 98.7757,33.9636 93.109,35.6303 87.5,37.5C 77.9014,34.9693 75.4014,29.3026 80,20.5C 84.6952,17.7347 89.5286,15.4014 94.5,13.5 Z"/></g>
<g><path style="opacity:1" fill="#ebb60b" d="M 113.5,6.5 C 123.534,5.39278 128.034,9.72611 127,19.5C 126.208,21.5873 125.041,23.4207 123.5,25C 117.809,27.7995 111.976,29.2995 106,29.5C 103.931,23.7943 101.765,18.1276 99.5,12.5C 104.248,10.4535 108.914,8.4535 113.5,6.5 Z"/></g>
<g><path style="opacity:1" fill="#fef8e9" d="M 116.5,8.5 C 121.11,8.11984 123.776,10.1198 124.5,14.5C 122.174,13.8489 119.841,13.1822 117.5,12.5C 114.198,13.3797 110.865,14.0463 107.5,14.5C 107.5,13.5 107.5,12.5 107.5,11.5C 110.785,11.0719 113.785,10.0719 116.5,8.5 Z"/></g>
<g><path style="opacity:1" fill="#1d6879" d="M 72.5,41.5 C 75.941,41.3011 79.2744,41.8011 82.5,43C 95.5847,48.8065 108.585,54.8065 121.5,61C 129.371,67.8344 130.537,75.6677 125,84.5C 120.689,88.8246 115.523,90.3246 109.5,89C 95.0465,82.6068 80.7132,75.9401 66.5,69C 61.7981,64.0782 60.2981,58.2448 62,51.5C 64.1059,46.5573 67.6059,43.224 72.5,41.5 Z"/></g>
<g><path style="opacity:1" fill="#fbfcfd" d="M 72.5,43.5 C 75.1873,43.3359 77.854,43.5026 80.5,44C 86.2876,46.9774 92.121,49.8108 98,52.5C 98.3247,54.5527 97.9913,56.5527 97,58.5C 94.0226,64.2876 91.1892,70.121 88.5,76C 81.6391,74.15 74.9724,71.4833 68.5,68C 63.85,63.4256 62.35,57.9256 64,51.5C 66.0738,47.9231 68.9072,45.2565 72.5,43.5 Z"/></g>
<g><path style="opacity:1" fill="#ecb60c" d="M 100.5,54.5 C 108.395,56.8627 115.895,60.196 123,64.5C 128.011,71.7379 127.511,78.5712 121.5,85C 117.445,87.3403 113.111,88.007 108.5,87C 102.136,83.8178 95.8022,80.6511 89.5,77.5C 93.4531,69.9286 97.1198,62.2619 100.5,54.5 Z"/></g>
<g><path style="opacity:1" fill="#fefaef" d="M 107.5,61.5 C 113.619,63.4697 118.786,66.803 123,71.5C 123.946,73.9563 123.446,75.9563 121.5,77.5C 121.072,74.4777 119.739,71.9777 117.5,70C 114.5,68.3333 111.5,66.6667 108.5,65C 107.663,63.9887 107.33,62.8221 107.5,61.5 Z"/></g>
<g><path style="opacity:1" fill="#09dc9f" d="M 3.5,87.5 C 15.4139,87.1785 27.2473,87.5118 39,88.5C 39.4999,103.83 39.6666,119.163 39.5,134.5C 27.5,134.5 15.5,134.5 3.5,134.5C 3.5,118.833 3.5,103.167 3.5,87.5 Z"/></g>
<g><path style="opacity:1" fill="#1c6c7e" d="M 3.5,134.5 C 15.5,134.5 27.5,134.5 39.5,134.5C 39.6666,119.163 39.4999,103.83 39,88.5C 27.2473,87.5118 15.4139,87.1785 3.5,87.5C 3.38929,86.8826 3.05596,86.3826 2.5,86C 14.5,85.3333 26.5,85.3333 38.5,86C 40.9679,88.2283 42.1346,91.0617 42,94.5C 48.2102,89.096 55.3768,86.9294 63.5,88C 66.0482,90.4416 69.0482,92.1083 72.5,93C 77.8333,93.3333 83.1667,93.6667 88.5,94C 95.6958,96.2381 99.0291,101.071 98.5,108.5C 102.582,108.656 106.582,108.156 110.5,107C 116.844,103.496 122.844,99.4962 128.5,95C 131.89,92.7553 135.557,91.7553 139.5,92C 143.644,94.7204 144.477,98.2204 142,102.5C 131.259,111.785 120.426,120.952 109.5,130C 97.8547,132.129 86.188,134.129 74.5,136C 50.8333,136.667 27.1667,136.667 3.5,136C 2.26166,135.31 2.26166,134.81 3.5,134.5 Z"/></g>
<g><path style="opacity:1" fill="#fcfdfd" d="M 53.5,89.5 C 56.5184,89.3354 59.5184,89.502 62.5,90C 70.0308,94.9242 78.3641,96.9242 87.5,96C 94.8744,97.6032 97.2078,101.603 94.5,108C 83.8178,108.168 73.1511,108.668 62.5,109.5C 78.8684,110.923 95.2017,110.757 111.5,109C 118.672,104.581 125.672,99.9148 132.5,95C 138.807,91.7642 141.641,93.5976 141,100.5C 130.5,109.667 120,118.833 109.5,128C 98.4323,129.678 87.4323,131.678 76.5,134C 64.8381,134.5 53.1714,134.667 41.5,134.5C 41.3335,122.162 41.5001,109.829 42,97.5C 45.4636,94.1945 49.297,91.5279 53.5,89.5 Z"/></g>
</svg>
