<?xml version="1.0" encoding="UTF-8"?>
<!DOCTYPE svg PUBLIC "-//W3C//DTD SVG 1.1//EN" "http://www.w3.org/Graphics/SVG/1.1/DTD/svg11.dtd">
<svg xmlns="http://www.w3.org/2000/svg" version="1.1" width="148px" height="147px" style="shape-rendering:geometricPrecision; text-rendering:geometricPrecision; image-rendering:optimizeQuality; fill-rule:evenodd; clip-rule:evenodd" xmlns:xlink="http://www.w3.org/1999/xlink">
<g><path style="opacity:1" fill="#0ddc9f" d="M 80.5,42.5 C 70.4944,42.3335 60.4944,42.5002 50.5,43C 43.0551,45.3664 39.7217,50.5331 40.5,58.5C 33.969,59.1485 27.469,59.8152 21,60.5C 19.956,64.4039 21.456,66.7372 25.5,67.5C 24.1667,69.8333 24.1667,72.1667 25.5,74.5C 23.9223,75.2978 22.2556,75.7978 20.5,76C 17.8333,78 17.8333,80 20.5,82C 26.8333,82.3333 33.1667,82.6667 39.5,83C 40,83.5 40.5,84 41,84.5C 41.1298,88.9508 41.7964,93.2841 43,97.5C 48.6924,101.37 53.8591,105.87 58.5,111C 62.4797,112.874 66.4797,112.874 70.5,111C 74.0693,108.25 77.4026,105.416 80.5,102.5C 80.6665,114.505 80.4999,126.505 80,138.5C 79.6258,139.416 79.1258,140.25 78.5,141C 55.2547,142.646 31.9214,142.979 8.5,142C 6.66667,141.5 5.5,140.333 5,138.5C 4.33333,95.5 4.33333,52.5 5,9.5C 6.21398,7.95118 7.71398,6.78451 9.5,6C 32.255,5.02157 54.9216,5.3549 77.5,7C 78.3333,7.83333 79.1667,8.66667 80,9.5C 80.4998,20.495 80.6665,31.495 80.5,42.5 Z"/></g>
<g><path style="opacity:1" fill="#027e76" d="M 93.5,44.5 C 79.539,46.4828 65.2057,47.1495 50.5,46.5C 64.7352,45.8176 79.0685,45.1509 93.5,44.5 Z"/></g>
<g><path style="opacity:1" fill="#fbfefd" d="M 11.5,47.5 C 12.7868,48.8714 13.4535,50.7047 13.5,53C 13.1667,54.8333 12.8333,56.6667 12.5,58.5C 11.914,58.2907 11.414,57.9574 11,57.5C 10.2534,54.0764 10.42,50.7431 11.5,47.5 Z"/></g>
<g><path style="opacity:1" fill="#f9fbfa" d="M 46.5,83.5 C 49.1873,83.6641 51.854,83.4974 54.5,83C 55.6498,80.5378 56.9831,78.2045 58.5,76C 62.7159,74.7964 67.0492,74.1298 71.5,74C 72.9817,71.4082 72.6483,69.0749 70.5,67C 67.8333,66.6667 65.1667,66.3333 62.5,66C 60.6473,63.429 58.9806,60.7623 57.5,58C 53.8484,57.5014 50.1817,57.3347 46.5,57.5C 45.8144,53.713 46.8144,50.5463 49.5,48C 70.8333,47.3333 92.1667,47.3333 113.5,48C 117.874,53.9111 121.874,60.0777 125.5,66.5C 130.755,70.0438 135.921,73.7105 141,77.5C 141.667,83.8333 141.667,90.1667 141,96.5C 137.606,97.4558 134.106,97.7892 130.5,97.5C 130.065,90.7613 126.398,87.428 119.5,87.5C 113.777,87.8815 110.111,90.8815 108.5,96.5C 97.5202,97.4988 86.5202,97.8321 75.5,97.5C 73.1046,88.3022 67.4379,85.4688 58.5,89C 55.4044,91.0287 53.7377,93.862 53.5,97.5C 50.6755,97.9193 48.5088,96.9193 47,94.5C 46.5014,90.8484 46.3347,87.1817 46.5,83.5 Z"/></g>
<g><path style="opacity:1" fill="#f1b90c" d="M 79.5,52.5 C 81.5,52.5 83.5,52.5 85.5,52.5C 85.5,54.8333 85.5,57.1667 85.5,59.5C 87.8333,59.5 90.1667,59.5 92.5,59.5C 92.5,61.5 92.5,63.5 92.5,65.5C 90.1667,65.5 87.8333,65.5 85.5,65.5C 85.5,67.8333 85.5,70.1667 85.5,72.5C 83.1667,72.5 80.8333,72.5 78.5,72.5C 78.5,70.1667 78.5,67.8333 78.5,65.5C 76.5,65.5 74.5,65.5 72.5,65.5C 72.5,63.5 72.5,61.5 72.5,59.5C 74.8333,59.5 77.1667,59.5 79.5,59.5C 79.5,57.1667 79.5,54.8333 79.5,52.5 Z"/></g>
<g><path style="opacity:1" fill="#f1bb18" d="M 99.5,53.5 C 104.179,53.3342 108.845,53.5008 113.5,54C 117.586,57.6747 119.92,62.1747 120.5,67.5C 113.492,67.6663 106.492,67.4996 99.5,67C 98.1943,62.5006 98.1943,58.0006 99.5,53.5 Z"/></g>
<g><path style="opacity:1" fill="#fefbf4" d="M 101.5,57.5 C 103.337,57.6395 103.67,58.3061 102.5,59.5C 101.702,59.0431 101.369,58.3764 101.5,57.5 Z"/></g>
<g><path style="opacity:1" fill="#fefbf2" d="M 106.5,57.5 C 108.604,57.2011 110.604,57.5344 112.5,58.5C 111.5,58.8333 110.5,59.1667 109.5,59.5C 107.97,59.3601 106.97,58.6935 106.5,57.5 Z"/></g>
<g><path style="opacity:1" fill="#0c7076" d="M 24.5,61.5 C 27.0728,61.1485 29.4062,61.6485 31.5,63C 29.3863,64.518 27.053,64.8513 24.5,64C 23.4019,63.2303 23.4019,62.397 24.5,61.5 Z"/></g>
<g><path style="opacity:1" fill="#0d7176" d="M 33.5,61.5 C 40.6767,61.0398 47.6767,61.5398 54.5,63C 47.6693,64.6247 40.6693,64.958 33.5,64C 32.4019,63.2303 32.4019,62.397 33.5,61.5 Z"/></g>
<g><path style="opacity:1" fill="#0d7277" d="M 28.5,69.5 C 30.7505,69.1814 32.7505,69.6814 34.5,71C 32.3168,72.6941 29.9835,72.8607 27.5,71.5C 27.8627,70.8165 28.1961,70.1499 28.5,69.5 Z"/></g>
<g><path style="opacity:1" fill="#0d7076" d="M 36.5,69.5 C 46.5056,69.3335 56.5056,69.5002 66.5,70C 66.9574,70.414 67.2907,70.914 67.5,71.5C 57.1828,72.6656 46.8494,72.8323 36.5,72C 35.4019,71.2303 35.4019,70.397 36.5,69.5 Z"/></g>
<g><path style="opacity:1" fill="#316b87" d="M 99.5,70.5 C 102.247,70.1866 104.914,70.52 107.5,71.5C 106.167,71.8333 104.833,72.1667 103.5,72.5C 101.667,72.4146 100.334,71.7479 99.5,70.5 Z"/></g>
<g><path style="opacity:1" fill="#326c87" d="M 110.5,70.5 C 115.544,70.1725 120.544,70.5059 125.5,71.5C 123,71.8333 120.5,72.1667 118,72.5C 115.071,72.4752 112.571,71.8086 110.5,70.5 Z"/></g>
<g><path style="opacity:1" fill="#0d7276" d="M 22.5,77.5 C 23.8333,77.5 25.1667,77.5 26.5,77.5C 26.5,78.5 26.5,79.5 26.5,80.5C 25.1266,80.6567 23.7932,80.49 22.5,80C 21.4019,79.2303 21.4019,78.397 22.5,77.5 Z"/></g>
<g><path style="opacity:1" fill="#0d7076" d="M 28.5,77.5 C 35.5,77.5 42.5,77.5 49.5,77.5C 49.5,78.5 49.5,79.5 49.5,80.5C 42.5,80.5 35.5,80.5 28.5,80.5C 28.5,79.5 28.5,78.5 28.5,77.5 Z"/></g>
<g><path style="opacity:1" fill="#16657a" d="M 46.5,83.5 C 46.3347,87.1817 46.5014,90.8484 47,94.5C 48.5088,96.9193 50.6755,97.9193 53.5,97.5C 53.7377,93.862 55.4044,91.0287 58.5,89C 67.4379,85.4688 73.1046,88.3022 75.5,97.5C 86.5202,97.8321 97.5202,97.4988 108.5,96.5C 110.111,90.8815 113.777,87.8815 119.5,87.5C 126.398,87.428 130.065,90.7613 130.5,97.5C 134.106,97.7892 137.606,97.4558 141,96.5C 141.667,90.1667 141.667,83.8333 141,77.5C 135.921,73.7105 130.755,70.0438 125.5,66.5C 121.874,60.0777 117.874,53.9111 113.5,48C 92.1667,47.3333 70.8333,47.3333 49.5,48C 46.8144,50.5463 45.8144,53.713 46.5,57.5C 43.8232,53.9874 44.1565,50.4874 47.5,47C 48.448,46.5172 49.448,46.3505 50.5,46.5C 65.2057,47.1495 79.539,46.4828 93.5,44.5C 94.1932,36.5792 98.0265,34.2459 105,37.5C 106.136,40.0964 106.969,42.763 107.5,45.5C 110.32,45.2475 112.986,45.7475 115.5,47C 119.459,53.0827 123.292,59.2494 127,65.5C 131.748,68.791 136.581,71.9577 141.5,75C 142.126,75.7504 142.626,76.5838 143,77.5C 143.667,83.8333 143.667,90.1667 143,96.5C 142.167,97.3333 141.333,98.1667 140.5,99C 137.183,99.4983 133.85,99.665 130.5,99.5C 127.748,109.369 121.748,111.869 112.5,107C 110.791,105.084 109.457,102.918 108.5,100.5C 97.5202,99.5012 86.5202,99.1679 75.5,99.5C 73.0684,108.491 67.4017,111.324 58.5,108C 55.4044,105.971 53.7377,103.138 53.5,99.5C 46.5387,99.1973 43.5387,95.5306 44.5,88.5C 44.8333,86.5 45.1667,84.5 45.5,82.5C 46.1067,82.6236 46.44,82.9569 46.5,83.5 Z"/></g>
<g><path style="opacity:1" fill="#f1f5f7" d="M 115.5,89.5 C 122.928,88.0386 127.595,90.872 129.5,98C 128.429,105.692 124.096,108.692 116.5,107C 108.995,101.623 108.662,95.7896 115.5,89.5 Z"/></g>
<g><path style="opacity:1" fill="#f5f8f9" d="M 62.5,88.5 C 71.0139,88.843 74.5139,93.1763 73,101.5C 70.6471,106.426 66.8138,108.26 61.5,107C 56.2685,104.367 54.4351,100.201 56,94.5C 57.4936,91.6865 59.6603,89.6865 62.5,88.5 Z"/></g>
<g><path style="opacity:1" fill="#326a7d" d="M 61.5,93.5 C 66.0832,92.343 68.7499,94.0096 69.5,98.5C 67.3489,104.163 64.1822,104.83 60,100.5C 59.1668,97.829 59.6668,95.4957 61.5,93.5 Z"/></g>
<g><path style="opacity:1" fill="#e0b011" d="M 63.5,94.5 C 67.2635,95.385 68.2635,97.5516 66.5,101C 63.4333,102.164 61.7666,101.164 61.5,98C 61.8618,96.5657 62.5285,95.3991 63.5,94.5 Z"/></g>
<g><path style="opacity:1" fill="#668743" d="M 95.5,44.5 C 98.6248,45.4794 101.958,45.8128 105.5,45.5C 101.981,46.8077 98.3147,46.8077 94.5,45.5C 94.6236,44.8933 94.9569,44.56 95.5,44.5 Z"/></g>
<g><path style="opacity:1" fill="#e3b20e" d="M 105.5,45.5 C 101.958,45.8128 98.6248,45.4794 95.5,44.5C 95.42,38.8689 97.92,36.8689 103,38.5C 104.411,40.6504 105.245,42.9837 105.5,45.5 Z"/></g>
<g><path style="opacity:1" fill="#28667f" d="M 117.5,93.5 C 123,92.8314 125.167,95.1647 124,100.5C 120.592,104.483 117.592,104.15 115,99.5C 114.333,98.5 114.333,97.5 115,96.5C 116.045,95.6266 116.878,94.6266 117.5,93.5 Z"/></g>
<g><path style="opacity:1" fill="#d5ac1a" d="M 118.5,94.5 C 123.493,94.997 124.493,97.1637 121.5,101C 116.148,101.175 115.148,99.0087 118.5,94.5 Z"/></g>
<g><path style="opacity:1" fill="#066878" d="M 80.5,42.5 C 80.6665,31.495 80.4998,20.495 80,9.5C 79.1667,8.66667 78.3333,7.83333 77.5,7C 54.9216,5.3549 32.255,5.02157 9.5,6C 7.71398,6.78451 6.21398,7.95118 5,9.5C 4.33333,52.5 4.33333,95.5 5,138.5C 5.5,140.333 6.66667,141.5 8.5,142C 31.9214,142.979 55.2547,142.646 78.5,141C 79.1258,140.25 79.6258,139.416 80,138.5C 80.4999,126.505 80.6665,114.505 80.5,102.5C 81.8293,108.128 82.496,114.128 82.5,120.5C 82.3333,126.5 82.1667,132.5 82,138.5C 81.2155,140.286 80.0488,141.786 78.5,143C 55.2547,144.646 31.9214,144.979 8.5,144C 6,142.833 4.16667,141 3,138.5C 2.33333,95.5 2.33333,52.5 3,9.5C 3.78451,7.71398 4.95118,6.21398 6.5,5C 18.4327,3.86358 30.4327,3.36358 42.5,3.5C 53.5,3.66667 64.5,3.83333 75.5,4C 78.5827,4.78597 80.7494,6.61931 82,9.5C 82.8325,20.848 82.6658,32.1813 81.5,43.5C 80.8933,43.3764 80.56,43.0431 80.5,42.5 Z"/></g>
<g><path style="opacity:1" fill="#fafefc" d="M 72.5,114.5 C 73.4959,114.414 74.3292,114.748 75,115.5C 75.8696,121.917 75.5362,128.251 74,134.5C 72.8289,135.893 71.3289,136.727 69.5,137C 66.1832,137.498 62.8499,137.665 59.5,137.5C 59.5,136.5 59.5,135.5 59.5,134.5C 62.8499,134.665 66.1832,134.498 69.5,134C 70.3333,133.167 71.1667,132.333 72,131.5C 72.4994,125.843 72.6661,120.176 72.5,114.5 Z"/></g>
<g><path style="opacity:1" fill="#f8fefc" d="M 40.5,12.5 C 45.8128,12.6438 47.9794,15.3105 47,20.5C 44.4192,24.0567 41.4192,24.39 38,21.5C 36.9271,17.9003 37.7605,14.9003 40.5,12.5 Z"/></g>
<g><path style="opacity:1" fill="#f1fdf9" d="M 16.5,12.5 C 19.8333,12.5 23.1667,12.5 26.5,12.5C 26.67,13.8221 26.3366,14.9887 25.5,16C 22.1667,16.3333 18.8333,16.6667 15.5,17C 15,17.5 14.5,18 14,18.5C 13.8315,26.1883 13.3315,33.8549 12.5,41.5C 11.914,41.2907 11.414,40.9574 11,40.5C 10.3333,33.1667 10.3333,25.8333 11,18.5C 12.3597,15.9774 14.193,13.9774 16.5,12.5 Z"/></g>
</svg>
